<svg xmlns="http://www.w3.org/2000/svg" width="183" height="54" viewBox="0 0 183 54" fill="none"><path fill-rule="evenodd" clip-rule="evenodd" d="M34.1197 41.7791C34.1197 48.5187 28.6582 54 21.9427 54C15.2296 54 9.76562 48.5187 9.76562 41.7791C9.76562 40.9491 9.84748 40.1358 10.0067 39.352C10.1706 38.5389 10.4166 37.7523 10.7324 37.0069C11.6753 34.7855 13.2571 32.898 15.244 31.579C15.2464 31.5767 15.2489 31.5742 15.2536 31.5742C15.6442 31.313 16.0492 31.078 16.469 30.8651L16.4713 30.8626C16.5944 30.7998 16.7197 30.7393 16.8476 30.6812C16.8765 30.6668 16.9054 30.6545 16.9368 30.6401C17.0451 30.5892 17.1561 30.5408 17.2671 30.4949C17.5443 30.3788 17.8242 30.2746 18.111 30.1778C18.6465 31.5574 19.3867 32.8374 20.2909 33.9773C20.4308 34.1538 20.5777 34.3304 20.7272 34.4999C20.0787 34.6063 19.4614 34.7999 18.8826 35.0686C18.4509 35.2646 18.041 35.5065 17.6602 35.7824C17.6578 35.7849 17.6553 35.7849 17.6528 35.7872H17.6506C16.4713 36.6417 15.5503 37.8394 15.039 39.2309C14.7473 40.0246 14.588 40.8836 14.588 41.7791C14.588 45.8494 17.8867 49.1601 21.9427 49.1601C25.9984 49.1601 29.2971 45.8494 29.2971 41.7791C29.2971 40.8836 29.1381 40.0246 28.8461 39.2309C29.772 39.4172 30.7293 39.5142 31.7084 39.5142C32.4464 39.5142 33.1696 39.4582 33.8786 39.352C34.0376 40.1358 34.1197 40.9491 34.1197 41.7791Z" fill="#D70B8C"></path><path fill-rule="evenodd" clip-rule="evenodd" d="M24.294 23.6634H19.4328C19.2206 22.3686 18.6708 21.1878 17.8776 20.2149C16.5272 18.5547 14.4751 17.4925 12.1773 17.4925C8.12132 17.4925 4.82265 20.803 4.82265 24.8732C4.82265 28.5274 7.48244 31.5694 10.9618 32.1525C9.85497 33.4206 8.96538 34.8798 8.34556 36.4745C3.50363 34.8605 0 30.2697 0 24.8732C0 18.1361 5.46399 12.6526 12.1773 12.6526C15.2903 12.6526 18.1355 13.8311 20.2912 15.7695C20.9013 16.3164 21.4559 16.9238 21.943 17.5845C23.2306 19.3172 24.0722 21.3982 24.294 23.6634Z" fill="#2A5CAA"></path><path fill-rule="evenodd" clip-rule="evenodd" d="M24.3739 12.224H19.5515C19.5515 8.15424 16.2537 4.83947 12.1982 4.83947V0C18.9093 0 24.3739 5.48424 24.3739 12.224Z" fill="#2A5CAA"></path><path fill-rule="evenodd" clip-rule="evenodd" d="M43.8858 24.8733C43.8858 30.2698 40.3846 34.8604 35.5402 36.4746C34.7758 36.7287 33.9777 36.9101 33.1531 37.0069C32.6804 37.0649 32.1983 37.0942 31.7087 37.0942C29.741 37.0942 27.882 36.6245 26.2351 35.7873H26.2326C25.8106 35.5742 25.4031 35.3348 25.01 35.0735C25.0076 35.071 25.0053 35.0685 25.0029 35.0685C24.5062 34.7395 24.0359 34.374 23.5946 33.9748C22.9844 33.4302 22.4299 32.8228 21.9428 32.1645C21.3667 31.3903 20.8794 30.5457 20.4987 29.6455C20.1827 28.8977 19.9367 28.1136 19.7728 27.3005C19.6932 26.9012 19.6304 26.4948 19.5918 26.0832H24.453C24.5304 26.5454 24.6483 26.9931 24.8051 27.4216C25.0896 28.1935 25.4971 28.9051 26.0084 29.5316C26.4183 30.0351 26.8886 30.4827 27.4142 30.8626C27.4167 30.8626 27.4167 30.8626 27.4167 30.8653C27.7999 31.1434 28.2123 31.3854 28.6487 31.5838C29.5795 32.0146 30.6164 32.2541 31.7087 32.2541C32.1234 32.2541 32.5286 32.2203 32.9239 32.1525C36.4036 31.5692 39.0631 28.5274 39.0631 24.8733C39.0631 20.8031 35.7645 17.4926 31.7087 17.4926C29.4107 17.4926 27.3586 18.5548 26.0084 20.215C25.4635 18.5888 24.6412 17.0884 23.5946 15.7718C25.7503 13.831 28.5957 12.6526 31.7087 12.6526C38.4242 12.6526 43.8858 18.1362 43.8858 24.8733Z" fill="#E5B245"></path><path fill-rule="evenodd" clip-rule="evenodd" d="M124.545 36.9014H127.688V18.9986H124.545V36.9014ZM124.545 15.5034H127.688V12.5203H124.545V15.5034ZM121.951 36.3893C120.479 36.7307 118.894 36.9014 117.195 36.9014C110.853 36.9014 107.681 33.8042 107.681 27.6086C107.681 21.869 110.853 18.9986 117.195 18.9986C118.894 18.9986 120.479 19.1693 121.951 19.51V22.0681C120.479 21.7267 118.837 21.5567 117.025 21.5567C112.891 21.5567 110.825 23.5738 110.825 27.6086C110.825 32.0988 112.891 34.3439 117.025 34.3439C118.837 34.3439 120.479 34.1732 121.951 33.8325V36.3893ZM101.691 36.9014H104.834V18.9986H101.691V36.9014ZM101.691 15.5034H104.834V12.5203H101.691V15.5034ZM91.6232 16.0998H93.5944L94.274 18.9986H99.0987V21.5567H94.7664V31.8365C94.7664 33.5077 95.4854 34.3439 96.9241 34.3439H99.0987V36.9014H96.1085C93.1183 36.9014 91.6232 35.2921 91.6232 32.0764V16.0998ZM72.8914 36.9014V18.9986H75.0149L75.5756 21.2832C77.399 19.7604 79.4037 18.9986 81.5902 18.9986C86.0407 18.9986 88.266 21.2213 88.266 25.6653V36.9014H85.1234V25.6139C85.1234 22.9544 83.8036 21.6246 81.1647 21.6246C79.3643 21.6246 77.6538 22.3811 76.0346 23.8921V36.9014H72.8914ZM61.7362 28.5463C59.0067 28.5463 57.6416 29.513 57.6416 31.4451C57.6416 33.3772 58.7184 34.3439 60.8701 34.3439C63.0448 34.3439 64.8853 33.764 66.3916 32.6042V28.8877C64.8394 28.6603 63.2878 28.5463 61.7362 28.5463ZM54.499 31.4965C54.499 27.8248 56.9114 25.9889 61.7362 25.9889C63.2878 25.9889 64.8394 26.1029 66.3916 26.3302V24.642C66.3916 22.5847 64.7888 21.5567 61.5832 21.5567C59.7486 21.5567 57.8688 21.84 55.9436 22.4087V19.8513C57.8688 19.2833 59.7486 18.9986 61.5832 18.9986C66.884 18.9986 69.5341 20.8516 69.5341 24.557V36.9014H67.7672L66.6805 35.1274C64.9017 36.3102 62.9654 36.9014 60.8701 36.9014C56.6225 36.9014 54.499 35.0991 54.499 31.4965Z" fill="#2A5CAA"></path><path fill-rule="evenodd" clip-rule="evenodd" d="M164.635 18.9984H169.409L173.911 31.8885L178.311 18.9984H183L175.592 37.4297C174.279 40.6797 172.178 42.9933 169.29 44.3686L167.115 41.282C169.108 40.4075 170.558 38.9809 171.464 37.0033L164.635 18.9984ZM156.113 29.0582C153.95 29.0582 152.868 29.7976 152.868 31.2743C152.868 32.8664 153.774 33.6617 155.587 33.6617C157.082 33.6617 158.468 33.1958 159.749 32.2634V29.3989C158.616 29.1715 157.405 29.0582 156.113 29.0582ZM148.366 31.3257C148.366 27.7686 150.949 25.9887 156.113 25.9887C157.325 25.9887 158.537 26.1027 159.749 26.3301V24.9832C159.749 23.3806 158.6 22.5793 156.3 22.5793C154.352 22.5793 152.189 22.8633 149.81 23.432V19.8511C152.189 19.2831 154.352 18.9984 156.3 18.9984C161.6 18.9984 164.251 20.9648 164.251 24.8982V36.9012H161.635L160.038 35.2979C158.486 36.3661 156.776 36.9012 154.907 36.9012C150.546 36.9012 148.366 35.0429 148.366 31.3257ZM135.461 32.2291C136.583 32.8433 137.789 33.1504 139.081 33.1504C141.764 33.1504 143.106 31.2578 143.106 27.4721C143.106 24.2563 141.623 22.6471 138.656 22.6471C137.375 22.6471 136.311 22.7269 135.461 22.8857V32.2291ZM130.959 19.7319C133.326 19.2429 135.83 18.9984 138.469 18.9984C144.528 18.9984 147.557 21.8353 147.557 27.5063C147.557 33.7698 144.738 36.9012 139.097 36.9012C137.897 36.9012 136.685 36.6172 135.461 36.0485V43.3801H130.959V19.7319Z" fill="#E5B245"></path></svg>