<svg xmlns="http://www.w3.org/2000/svg" width="135" height="30" viewBox="0 0 135 30" fill="none"><path d="M45.0975 20.5415C45.0975 21.0312 45.03 21.5208 44.9175 22.0772H35.4659L35.1059 21.543L40.5293 11.1499H35.7135C35.6459 10.8605 35.6009 10.5935 35.5784 10.3487C35.5559 10.1039 35.5559 9.85905 35.5559 9.65875C35.5559 9.4362 35.5559 9.1914 35.5784 8.94659C35.6009 8.67953 35.6459 8.41246 35.7135 8.12315H45.2775L45.5701 8.67953L40.1917 19.0504H44.9175C45.03 19.6068 45.0975 20.0964 45.0975 20.5415Z" fill="#0068B7"></path><path d="M52.7938 22.2775C51.7361 22.2775 50.8585 22.1439 50.1609 21.8546C49.4632 21.5653 48.9007 21.1647 48.4956 20.6306C48.0905 20.0964 47.798 19.451 47.6404 18.6721C47.4829 17.9154 47.3929 17.0475 47.3929 16.0905V8.1454C47.7755 8.10089 48.0905 8.05638 48.3831 8.03413C48.6531 8.01187 48.9232 8.01187 49.1707 8.01187C49.3957 8.01187 49.6433 8.01187 49.9133 8.03413C50.1834 8.05638 50.4984 8.07864 50.881 8.1454V15.6899C50.881 16.3353 50.9035 16.8917 50.971 17.3368C51.016 17.7819 51.1285 18.1602 51.2635 18.4496C51.3986 18.7389 51.6011 18.9392 51.8486 19.0504C52.0962 19.184 52.4337 19.2285 52.8388 19.2285C53.2439 19.2285 53.5814 19.1617 53.829 19.0504C54.0765 18.9169 54.279 18.7166 54.4141 18.4496C54.5491 18.1602 54.6391 17.8042 54.6841 17.3368C54.7291 16.8917 54.7516 16.3353 54.7516 15.6899V8.16766C55.1342 8.12315 55.4717 8.07864 55.7418 8.05638C56.0118 8.03413 56.2594 8.03413 56.4844 8.03413C56.7094 8.03413 56.9795 8.03413 57.2495 8.05638C57.5196 8.07864 57.8571 8.10089 58.2397 8.16766V16.1128C58.2397 17.0697 58.1497 17.9377 57.9922 18.6944C57.8346 19.451 57.5421 20.0964 57.137 20.6528C56.732 21.1869 56.1694 21.6098 55.4717 21.8769C54.7291 22.1439 53.8515 22.2775 52.7938 22.2775Z" fill="#0068B7"></path><path d="M64.2032 15.1113C64.2032 17.8487 65.3734 19.2285 67.6913 19.2285C68.1189 19.2285 68.5014 19.184 68.884 19.1172C69.2665 19.0504 69.7166 18.9169 70.2567 18.7389C70.6843 19.6736 70.9768 20.6306 71.1118 21.6098C70.7293 21.7433 70.3692 21.8769 70.0542 21.9659C69.7166 22.0549 69.4016 22.1217 69.109 22.1662C68.8165 22.2107 68.5014 22.2329 68.2089 22.2552C67.9163 22.2774 67.6013 22.2775 67.2862 22.2775C66.1835 22.2775 65.1934 22.0994 64.3607 21.7433C63.5056 21.3872 62.808 20.8976 62.2454 20.2522C61.6828 19.6291 61.2552 18.8501 60.9627 17.9822C60.6701 17.092 60.5351 16.1573 60.5351 15.1113C60.5351 14.0875 60.6926 13.1083 60.9852 12.2404C61.2777 11.3501 61.7278 10.5935 62.2904 9.94807C62.853 9.30267 63.5731 8.7908 64.4057 8.43472C65.2384 8.07863 66.1835 7.90059 67.2412 7.90059C67.8713 7.90059 68.4564 7.94511 69.019 8.03413C69.5816 8.12315 70.2117 8.30119 70.9093 8.56825C70.8868 9.10237 70.7743 9.61424 70.6168 10.1039C70.4367 10.5935 70.2792 11.0386 70.0767 11.4169C69.8066 11.3279 69.5816 11.2389 69.3566 11.1944C69.1315 11.1276 68.929 11.0831 68.749 11.0386C68.5464 10.9941 68.3664 10.9718 68.1639 10.9496C67.9613 10.9273 67.7588 10.9273 67.5338 10.9273C66.4761 10.9273 65.6434 11.2834 65.0808 11.9955C64.4957 12.6632 64.2032 13.7315 64.2032 15.1113Z" fill="#0068B7"></path><path d="M75.6351 15.1113C75.6351 17.8487 76.8053 19.2285 79.1232 19.2285C79.5508 19.2285 79.9333 19.184 80.3159 19.1172C80.6984 19.0504 81.1485 18.9169 81.6886 18.7389C82.1162 19.6736 82.4087 20.6306 82.5438 21.6098C82.1612 21.7433 81.8011 21.8769 81.4861 21.9659C81.1485 22.0549 80.8335 22.1217 80.5409 22.1662C80.2484 22.2107 79.9333 22.2329 79.6408 22.2552C79.3482 22.2774 79.0332 22.2775 78.7406 22.2775C77.6379 22.2775 76.6478 22.0994 75.8151 21.7433C74.96 21.3872 74.2624 20.8976 73.6998 20.2522C73.1372 19.6291 72.7096 18.8501 72.4171 17.9822C72.1245 17.092 71.9895 16.1573 71.9895 15.1113C71.9895 14.0875 72.147 13.1083 72.4396 12.2404C72.7321 11.3501 73.1822 10.5935 73.7448 9.94807C74.3074 9.30267 75.0275 8.7908 75.8601 8.43472C76.6928 8.07863 77.6379 7.90059 78.6956 7.90059C79.3257 7.90059 79.9108 7.94511 80.4734 8.03413C81.036 8.12315 81.6661 8.30119 82.3637 8.56825C82.3412 9.10237 82.2287 9.61424 82.0712 10.1039C81.8911 10.5935 81.7336 11.0386 81.5311 11.4169C81.261 11.3279 81.036 11.2389 80.811 11.1944C80.5859 11.1276 80.3834 11.0831 80.2034 11.0386C80.0008 10.9941 79.8208 10.9718 79.6183 10.9496C79.4157 10.9273 79.2132 10.9273 78.9882 10.9273C77.9305 10.9273 77.0978 11.2834 76.5353 11.9955C75.9052 12.6632 75.6351 13.7315 75.6351 15.1113Z" fill="#0068B7"></path><path d="M93.4131 22.1884C92.918 22.1884 92.3554 22.1217 91.6578 22.0104V16.3353H88.1922V22.0104C87.4946 22.1217 86.932 22.1884 86.4594 22.1884C85.9643 22.1884 85.4017 22.1217 84.7041 22.0104V8.1454C85.0642 8.10089 85.3792 8.05638 85.6718 8.03413C85.9643 8.01187 86.2119 7.98961 86.4369 7.98961C86.6619 7.98961 86.932 8.01187 87.2245 8.03413C87.5171 8.05638 87.8321 8.10089 88.1697 8.1454V13.2864H91.6803V8.1454C92.0403 8.10089 92.3554 8.05638 92.6254 8.03413C92.8955 8.01187 93.1655 7.98961 93.3906 7.98961C93.6156 7.98961 93.8856 8.01187 94.1782 8.03413C94.4707 8.05638 94.7858 8.10089 95.1233 8.1454V22.0104C94.4482 22.1217 93.8856 22.1884 93.4131 22.1884Z" fill="#0068B7"></path><path d="M105.385 14.7997C105.385 15.2448 105.318 15.7567 105.205 16.3131H101.424V19.0727H106.353C106.465 19.6068 106.533 20.1187 106.533 20.5415C106.533 21.0089 106.465 21.5208 106.353 22.0772H97.9588V8.12315H106.24C106.285 8.41246 106.33 8.67953 106.353 8.92433C106.375 9.16914 106.398 9.41395 106.398 9.61425C106.398 10.0371 106.353 10.549 106.24 11.1499H101.424V13.2864H105.205C105.34 13.8427 105.385 14.3546 105.385 14.7997Z" fill="#0068B7"></path><path d="M111.304 11.1499H108.018C107.905 10.5935 107.838 10.0816 107.838 9.61425C107.838 9.1914 107.905 8.67953 108.018 8.12315H118.055C118.1 8.41246 118.145 8.67953 118.167 8.92433C118.19 9.16914 118.212 9.41395 118.212 9.61425C118.212 10.0371 118.167 10.549 118.055 11.1499H114.769V22.0104C114.072 22.1217 113.509 22.1884 113.036 22.1884C112.541 22.1884 111.979 22.1217 111.281 22.0104V11.1499H111.304Z" fill="#0068B7"></path><path d="M122.713 11.1499H119.427C119.315 10.5935 119.247 10.0816 119.247 9.61425C119.247 9.1914 119.315 8.67953 119.427 8.12315H129.442C129.487 8.41246 129.532 8.67953 129.554 8.92433C129.577 9.16914 129.599 9.41395 129.599 9.61425C129.599 10.0371 129.554 10.549 129.442 11.1499H126.156V22.0104C125.458 22.1217 124.896 22.1884 124.423 22.1884C123.928 22.1884 123.366 22.1217 122.668 22.0104V11.1499H122.713Z" fill="#0068B7"></path><path d="M133.29 22.1884C132.795 22.1884 132.232 22.1217 131.534 22.0104V8.1454C131.894 8.10089 132.21 8.05638 132.502 8.03413C132.795 8.01187 133.042 7.98961 133.267 7.98961C133.492 7.98961 133.762 8.01187 134.055 8.03413C134.347 8.05638 134.662 8.10089 135 8.1454V22.0104C134.325 22.1217 133.74 22.1884 133.29 22.1884Z" fill="#0068B7"></path><path d="M22.2337 11.3724H19.1957L18.9707 11.6172L18.5656 12.0401H22.2337V11.3724Z" fill="#0068B7"></path><path d="M22.2337 10.0371H20.4109L20.2534 10.1929L19.8033 10.7048H22.2337V10.0371Z" fill="#0068B7"></path><path d="M22.2337 14.0653H16.7653L16.4052 14.4214L16.1127 14.7329H22.2337V14.0653Z" fill="#0068B7"></path><path d="M22.2337 12.7077H17.9805L17.6879 13.0193L17.3504 13.3976H22.2337V12.7077Z" fill="#0068B7"></path><path d="M7.35873 3.31602H4.27571V3.98368H8.01133L7.35873 3.31602Z" fill="#0068B7"></path><path d="M6.14352 1.98071H4.25321V2.64837H6.79613L6.14352 1.98071Z" fill="#0068B7"></path><path d="M4.27571 0V1.31306H5.58093L4.27571 0Z" fill="#0068B7"></path><path d="M0 11.3724V12.0401H12.8496L13.4122 11.3724H0Z" fill="#0068B7"></path><path d="M4.27571 17.4036H8.25888L8.84397 16.7359L4.27571 16.7582V17.4036Z" fill="#0068B7"></path><path d="M4.27571 18.7611H7.11119L7.38123 18.4273L7.69628 18.0712H4.27571V18.7611Z" fill="#0068B7"></path><path d="M0 10.0371V10.7048H6.32355L6.84114 10.0371H0Z" fill="#0068B7"></path><path d="M22.2337 9.36944V8.03413L21.0185 9.36944H22.2337Z" fill="#0068B7"></path><path d="M0 12.7077V13.3976H11.702L12.2645 12.7077H0Z" fill="#0068B7"></path><path d="M4.27571 20.0964H5.96349L6.54859 19.4288H4.27571V20.0964Z" fill="#0068B7"></path><path d="M0 14.7329H10.5543L10.7343 14.5104L11.1169 14.0653H0V14.7329Z" fill="#0068B7"></path><path d="M8.57393 4.67359H4.25321V5.34125H9.24904L8.57393 4.67359Z" fill="#0068B7"></path><path d="M20.5909 28.1528H22.2337V27.4629H19.9383L20.5909 28.1528Z" fill="#0068B7"></path><path d="M19.8258 20.0964H26.5319V19.4288H20.4109L19.8258 20.0964Z" fill="#0068B7"></path><path d="M18.6781 21.4317H26.5319V20.7641H19.2632L18.6781 21.4317Z" fill="#0068B7"></path><path d="M18.2505 25.4599H22.2337V24.7923H17.6204L18.2505 25.4599Z" fill="#0068B7"></path><path d="M15.9327 22.7671H26.5319V22.0994H15.28L15.9327 22.7671Z" fill="#0068B7"></path><path d="M15.5501 15.4006L15.055 15.9125L14.8975 16.0683H26.5319V15.4006H15.5501Z" fill="#0068B7"></path><path d="M14.3124 16.7359L13.8173 17.2478L13.6598 17.4036H26.5319V16.7359H14.3124Z" fill="#0068B7"></path><path d="M12.4446 18.7611H26.5319V18.0712H13.1197L12.4446 18.7611Z" fill="#0068B7"></path><path d="M9.90165 15.4896L9.96916 15.4006H0V16.0683H9.40657L9.90165 15.4896Z" fill="#0068B7"></path><path d="M7.35873 9.36944L7.85381 8.67953H0V9.36944H7.35873Z" fill="#0068B7"></path><path d="M22.2337 30V28.8205H21.1085L22.2337 30Z" fill="#0068B7"></path><path d="M9.78913 6.0089H4.27571V6.67656H10.4642L9.78913 6.0089Z" fill="#0068B7"></path><path d="M11.0268 7.34421H0V8.01187H11.6794L11.0268 7.34421Z" fill="#0068B7"></path><path d="M22.2112 26.1276H18.7906L19.4207 26.7953H22.2112V26.1276Z" fill="#0068B7"></path><path d="M22.2337 23.457H16.4277L17.0803 24.1246H22.2337V23.457Z" fill="#0068B7"></path><path d="M4.27571 20.7641V22.0772L5.4009 20.7641H4.27571Z" fill="#0068B7"></path></svg>