<svg width="167" height="31" viewBox="0 0 167 31" fill="none" xmlns="http://www.w3.org/2000/svg">
<g clip-path="url(#clip0_2584_395)">
<path fill-rule="evenodd" clip-rule="evenodd" d="M12.9624 8.44695L0.909636 20.4998L0.85313 20.5665C0.0469185 18.2985 -0.202872 15.87 0.124791 13.4853C0.452455 11.1006 1.34799 8.82952 2.73605 6.86296C4.12411 4.89641 5.96412 3.29195 8.10132 2.1845C10.2385 1.07706 12.6104 0.499023 15.0175 0.499023C17.4246 0.499023 19.7965 1.07706 21.9337 2.1845C24.0709 3.29195 25.9109 4.89641 27.2989 6.86296C28.687 8.82952 29.5825 11.1006 29.9102 13.4853C30.2378 15.87 29.9881 18.2985 29.1818 20.5665C29.1613 20.546 29.1305 20.4998 29.1305 20.4998L17.0725 8.44695C16.8029 8.17666 16.4826 7.96222 16.1299 7.8159C15.7773 7.66958 15.3993 7.59427 15.0175 7.59427C14.6357 7.59427 14.2577 7.66958 13.905 7.8159C13.5524 7.96222 13.2321 8.17666 12.9624 8.44695ZM20.8999 23.2328C22.5138 23.9292 23.9921 24.9049 25.2669 26.115L25.457 26.2999C22.6533 29.018 18.9018 30.5381 14.9968 30.5381C11.0919 30.5381 7.34031 29.018 4.53666 26.2999L4.74731 26.0996C6.01353 24.8973 7.48125 23.9269 9.08344 23.2328C12.8697 21.6825 17.1136 21.6825 20.8999 23.2328Z" fill="#AD2A4D"/>
<path d="M65.6596 29.0519C61.3908 29.0519 60.2151 26.3493 60.2151 23.6863V11.8188H56.3762V8.95829H60.2151V5.00977H63.545V8.95829H69.4195V11.8188H63.545V23.2739C63.545 25.1955 64.3654 25.9764 66.208 25.9764C67.3511 25.9387 68.4902 25.8215 69.6169 25.6254V28.4859C68.3323 28.8499 67.0036 29.0345 65.6684 29.0343" fill="black"/>
<path d="M85.9946 28.776V16.2022C85.9946 13.2276 84.7793 11.4639 81.6468 11.4639C79.7252 11.4639 78.1984 12.7187 77.3385 14.535C76.6717 15.9872 76.6322 18.0448 76.6322 19.5891V28.8023H73.3022V5.02344H76.6322V11.6043C77.808 9.56864 80.1946 8.47182 82.4277 8.47182C86.9334 8.47182 89.3201 11.1744 89.3201 15.7546V28.7979L85.9946 28.776Z" fill="black"/>
<path d="M108.584 26.9721C106.713 28.469 104.389 29.2846 101.992 29.2846C99.5964 29.2846 97.2716 28.469 95.4006 26.9721C93.0315 24.8574 92.2988 22.0013 92.2988 18.8689C92.2988 15.7364 93.0315 12.8758 95.4006 10.7568C97.2729 9.26286 99.5972 8.44922 101.992 8.44922C104.388 8.44922 106.712 9.26286 108.584 10.7568C110.953 12.8758 111.686 15.732 111.686 18.8689C111.686 22.0057 110.953 24.8574 108.584 26.9721ZM105.912 12.7179C104.81 11.8043 103.424 11.3044 101.992 11.3044C100.561 11.3044 99.1745 11.8043 98.0725 12.7179C96.5238 14.1657 96.0456 16.5568 96.0456 18.8601C96.0456 21.1634 96.5238 23.5588 98.0725 25.0022C99.1745 25.9158 100.561 26.4158 101.992 26.4158C103.424 26.4158 104.81 25.9158 105.912 25.0022C107.466 23.5544 107.939 21.1634 107.939 18.8601C107.939 16.5568 107.466 14.1569 105.912 12.7179Z" fill="black"/>
<path d="M127.546 28.7753V16.2015C127.546 13.2269 126.331 11.4633 123.198 11.4633C121.277 11.4633 119.75 12.718 118.89 14.5343C118.223 15.9865 118.184 18.0441 118.184 19.5884V28.8016H114.854V8.95813H118.048L118.026 11.9327C119.044 9.6601 121.786 8.44922 124.019 8.44922C128.524 8.44922 130.876 11.1518 130.876 15.732V28.7753H127.546Z" fill="black"/>
<path d="M151.755 19.962H137.716C137.706 21.8026 138.391 23.5791 139.633 24.9372C140.113 25.4073 140.684 25.7749 141.311 26.0177C141.938 26.2606 142.607 26.3736 143.279 26.3499C144.845 26.3499 146.139 25.9111 146.96 25.0337C147.557 24.4483 147.966 23.6984 148.136 22.8795H151.387C151.234 23.8616 150.884 24.8022 150.355 25.6441C149.827 26.4859 149.133 27.2112 148.315 27.7757C146.813 28.7562 145.055 29.2734 143.261 29.263C142.013 29.284 140.775 29.0281 139.637 28.5138C138.499 27.9995 137.49 27.2395 136.68 26.2884C135.035 24.3668 134.21 21.7433 134.21 18.9223C134.21 16.5356 134.649 14.4165 135.742 12.5783C136.507 11.2886 137.6 10.225 138.91 9.49583C140.221 8.76671 141.701 8.3982 143.2 8.42794C144.328 8.4017 145.449 8.61493 146.489 9.05355C147.529 9.49216 148.464 10.1462 149.232 10.9726C150.91 12.901 151.804 15.3885 151.737 17.9439L151.755 19.962ZM147.175 13.0697C146.713 12.4787 146.116 12.0067 145.435 11.693C144.753 11.3794 144.006 11.2331 143.257 11.2665C139.651 11.2665 137.891 14.206 137.812 17.1059H148.386C148.41 15.6675 147.987 14.2569 147.175 13.0697Z" fill="black"/>
<path d="M53.1998 29.0517C51.4449 29.0517 50.3393 27.7355 50.3393 26.0333H50.2603C49.124 28.0339 46.6584 29.2843 43.8769 29.2843C39.3317 29.2843 37.0635 26.2132 37.0635 23.1728C37.0635 20.6282 38.7087 17.2983 44.1138 16.9868L50.1463 16.6358V15.1836C50.1463 14.2053 50.0278 12.99 49.124 12.1696C48.4615 11.5422 47.4788 11.1518 45.8731 11.1518C44.0743 11.1518 42.938 11.6607 42.2711 12.3231C41.9533 12.6337 41.7025 13.0061 41.5342 13.4173C41.366 13.8286 41.2838 14.2699 41.2928 14.7142H38.0418C38.0425 13.9431 38.1951 13.1796 38.491 12.4675C38.7868 11.7554 39.2201 11.1085 39.766 10.5639C41.0822 9.15118 43.4469 8.44922 45.8731 8.44922C49.7119 8.44922 51.9055 10.0944 52.8488 12.2486C53.2555 13.2204 53.4557 14.2663 53.4367 15.3196V24.897C53.4367 25.9543 53.8754 26.2132 54.5335 26.2132C54.829 26.2009 55.1228 26.1613 55.4109 26.0947V28.5647C54.7292 28.8984 53.9759 29.0596 53.2173 29.0342L53.1998 29.0517ZM50.1463 19.2023L44.8157 19.5138C42.8195 19.6323 40.468 20.5712 40.468 23.0807C40.468 24.8356 41.5648 26.4852 44.3858 26.4852C45.1383 26.5058 45.8872 26.3742 46.5875 26.0983C47.2879 25.8223 47.9253 25.4078 48.4615 24.8794C49.5885 23.656 50.193 22.0408 50.1463 20.3781V19.2023Z" fill="black"/>
<path d="M162.969 29.0519C158.7 29.0519 157.524 26.3493 157.524 23.6863V11.8188H153.685V8.95829H157.524V5.00977H160.854V8.95829H166.729V11.8188H160.854V23.2739C160.854 25.1955 161.679 25.9764 163.517 25.9764C164.66 25.939 165.799 25.8218 166.926 25.6254V28.4859C165.642 28.8505 164.313 29.035 162.977 29.0343" fill="black"/>
</g>
<defs>
<clipPath id="clip0_2584_395">
<rect width="166.926" height="30" fill="white" transform="translate(0 0.5)"/>
</clipPath>
</defs>
</svg>
