<svg xmlns="http://www.w3.org/2000/svg" width="90" height="30" viewBox="0 0 90 30">
    <path fill="#778998" fill-rule="evenodd" d="M50.107 9.467c1.314 0 1.971.498 1.971 1.836 0 .436-.062.903-.187 1.463-.063.25-.22.374-.47.405l-4.443.187c-.312.03-.469-.187-.375-.498 1.001-2.895 2.19-3.393 3.504-3.393zm-4.38 7.378c0-.25.094-.374.375-.374l8.573-.311c.814-.032 1.377-.405 1.596-1.215.344-1.307.564-2.521.564-3.704 0-3.05-1.503-5.323-6.321-5.323-3.285 0-7.478 1.09-9.418 8.436-.344 1.245-.5 2.366-.5 3.362 0 3.518 2.002 5.479 7.134 5.479 1.25 0 3.159-.187 4.035-.343.658-.124 1.22-.498 1.815-2.054.563-1.494.407-2.024-.938-1.899-.626.062-2.41.311-3.661.311-2.472 0-3.254-.716-3.254-2.241v-.124zM20.383 29.529c-.094.312.062.499.375.468h4.598c.25 0 .407-.155.47-.404l1.66-6.15c.088-.32.257-.45.505-.441.248.008.648.101 2.377.094 3.507-.026 7.537-.524 9.351-7.621.407-1.557.595-2.926.595-4.11 0-3.766-1.909-5.447-6.633-5.447-2.003 0-4.287.311-6.164.623-.47.093-.72.342-.845.809l-6.29 22.18zM21.843.007c-.25.03-.406.156-.469.405l-6.239 21.974c-.094.31.063.497.376.497h4.63c.25 0 .407-.124.47-.373L26.556.47c.093-.311-.094-.498-.407-.467l-4.306.004zm10.336 9.77c2.096 0 2.847.686 2.847 2.304 0 .623-.094 1.339-.282 2.18-1 4.482-2.315 4.856-4.442 4.95l-1.22.061c-.313.032-.47-.124-.376-.436l2.41-8.685c.062-.248.218-.373.469-.373h.594zm34.699.592c1.033-.062 1.501-.373 2.034-2.272.594-2.086.156-2.086-1.158-2.086-1.627 0-5.444.312-7.29.747-.47.125-.751.374-.877.841l-4.223 14.787c-.094.31.062.497.375.497h4.63c.251 0 .408-.124.47-.373l3.098-11.55c.063-.248.22-.373.47-.404l2.471-.187zm15.644 9.184c-.063.249-.219.373-.47.373h-.656c-2.003 0-2.723-.467-2.723-1.463 0-1.463.69-2.583 2.973-2.74l1.47-.093c.314-.03.47.187.376.498l-.97 3.425zM70.945 6.292c-.25.03-.407.155-.47.404l-4.505 15.69c-.093.31.063.497.376.497h4.63c.25 0 .407-.124.47-.373l4.329-15.752c.094-.311-.094-.498-.407-.467h-4.423zM8.761 19.552c-.063.25-.22.374-.47.374h-.656c-2.003 0-2.723-.467-2.723-1.463 0-1.463.689-2.583 2.973-2.74l1.47-.093c.313-.03.47.187.376.498l-.97 3.425zm-2.284 3.643c2.096 0 4.16-.187 6.038-.405.5-.062.783-.311.908-.81l2.472-9.214c.218-.872.344-1.618.344-2.366 0-2.957-2.003-4.482-5.789-4.482-1.69 0-3.535.311-4.223.498-.689.187-1.252.53-1.815 2.023-.564 1.526-.407 2.055.907 1.93.876-.093 2.44-.28 3.567-.28 1.345 0 2.002.28 2.002 1.588 0 .124-.062.467-.093.622-.063.25-.22.374-.47.405l-1.877.125c-5.632.404-7.384 1.93-8.229 5.074C.031 18.619 0 19.21 0 19.553c0 2.77 1.971 3.642 6.477 3.642zm73.76 0c2.098 0 4.163-.187 6.04-.405.5-.062.782-.311.907-.81l2.472-9.214c.219-.872.344-1.618.344-2.366 0-2.957-2.002-4.482-5.788-4.482-1.69 0-3.536.311-4.224.498-.689.187-1.252.53-1.815 2.023-.563 1.526-.407 2.055.907 1.93.877-.093 2.44-.28 3.567-.28 1.346 0 2.003.28 2.003 1.588 0 .124-.063.467-.094.622-.063.25-.22.374-.47.405l-1.877.125c-5.632.404-7.384 1.93-8.229 5.074-.187.716-.219 1.307-.219 1.65 0 2.77 1.971 3.642 6.477 3.642zm-6.504-18.63c2.085 0 2.685 0 3.367-2.282C77.783-.001 76.916 0 75.052 0c-2.06 0-2.682.003-3.36 2.283-.687 2.282.22 2.282 2.041 2.282z"/>
</svg>
