<svg width="214" height="60" viewBox="0 0 214 60" fill="none"
  xmlns="http://www.w3.org/2000/svg">
  <path d="M116.3 13.8H98.2v3h18z" fill="#00305C"></path>
  <path d="M98.2 0h18v3H109c0 1-.8 1.8-1.7 1.8-.9 0-1.6-.8-1.6-1.8h-7.4z" fill="#00305C"></path>
  <path d="M113.3 3.7c0 3.5-2.7 6.4-6 6.4-3.4 0-6-2.9-6-6.4h-3c0 5.3 4 9.5 9 9.5s9-4.2 9-9.5z" fill="#00305C"></path>
  <path d="M93.2 16.1H1v.8h92.3z" fill="#00305C"></path>
  <path d="M213.4 16.1h-92.1v.8h92.1z" fill="#00305C"></path>
  <path d="m59 33.2 1 2.7h4.4l-6-15.7H54l-6 15.7h4.3l1-2.7zM57.9 30h-3.4l1.7-5z" fill="#00305C"></path>
  <path d="M74.3 29.7c2.2-.4 3.4-2.2 3.4-4.4 0-3.4-2.3-4.9-5.4-4.9H66v15.8h4.1v-6l4 6h5zm-4-6.1h.3c1.4 0 2.9.2 2.9 2 0 1.7-1.5 2-2.9 2h-.4z" fill="#00305C"></path>
  <path d="m104.3 33.5 1 2.7h4.4l-6-15.8h-4.4l-6 15.8h4.3l1-2.7zm-1-3.2h-3.5l1.7-5z" fill="#00305C"></path>
  <path d="M137.9 20.4h-4v15.8h4z" fill="#00305C"></path>
  <path d="m161 33.5 1 2.7h4.4l-6-15.8H156l-6 15.8h4.3l1-2.7zm-1-3.2h-3.5l1.7-5z" fill="#00305C"></path>
  <path d="M92 20.8a8.5 8.5 0 0 0-9.7 1.7 8.3 8.3 0 0 0-2.4 5.8c0 2.4.8 4.4 2.5 6a8.7 8.7 0 0 0 5.9 2.3c1.3 0 2.2-.3 3.6-.7v-5a4.7 4.7 0 0 1-3.5 1.8 4 4 0 0 1-4.3-4.3c0-2.5 1.7-4.4 4.2-4.4 1.4 0 2.8.6 3.6 1.7v-4.9z" fill="#00305C"></path>
  <path d="M120.2 20.4h-4.5l6.6 15.8h3.2l6.7-15.8h-4.4L124 30z" fill="#00305C"></path>
  <path d="M147.1 23.9h3.4v-3.5h-10.8V24h3.4v12.3h4z" fill="#00305C"></path>
  <path d="m11 53 1 2.6h4l-5.5-15.3h-4L.8 55.6h4l1-2.6zm-1-3.1H6.9L8.4 45z" fill="#00305C"></path>
  <path d="m11 53 1 2.6h4l-5.5-15.3h-4L.8 55.6h4l1-2.6zm-1-3.1H6.9L8.4 45z" fill="#00305C"></path>
  <path d="M24 49.3c2.1-.4 3.2-2.2 3.2-4.3 0-3.3-2.1-4.7-5-4.7h-5.6v15.3h3.8v-5.9l3.5 6h4.7zm-3.6-6h.3c1.2 0 2.6.3 2.6 2 0 1.6-1.4 1.8-2.6 1.8h-.3z" fill="#00305C"></path>
  <path d="M24 49.3c2.1-.4 3.2-2.2 3.2-4.3 0-3.3-2.1-4.7-5-4.7h-5.6v15.3h3.8v-5.9l3.5 6h4.7zm-3.6-6h.3c1.2 0 2.6.3 2.6 2 0 1.6-1.4 1.8-2.6 1.8h-.3z" fill="#00305C"></path>
  <path d="M39.4 40.6a7.6 7.6 0 0 0-8.9 1.7 8.3 8.3 0 0 0-2 5.7 7.8 7.8 0 0 0 7.6 8c1.2 0 2-.3 3.3-.7v-4.8c-.8 1-2 1.7-3.2 1.7-2.3 0-3.9-1.8-3.9-4.2 0-2.4 1.6-4.3 3.9-4.3a4 4 0 0 1 3.2 1.7z" fill="#00305C"></path>
  <path d="m50 53 1 2.6h4l-5.4-15.3h-4.1L40 55.6h4l1-2.6zm-1-3.1h-3l1.5-4.9z" fill="#00305C"></path>
  <path d="m50 53 1 2.6h4l-5.4-15.3h-4.1L40 55.6h4l1-2.6zm-1-3.1h-3l1.5-4.9z" fill="#00305C"></path>
  <path d="m70.5 53 1 2.6h4L70 40.3h-4l-5.6 15.3h4l1-2.6zm-1-3.1h-3L68 45z" fill="#00305C"></path>
  <path d="m70.5 53 1 2.6h4L70 40.3h-4l-5.6 15.3h4l1-2.6zm-1-3.1h-3L68 45z" fill="#00305C"></path>
  <path d="M85.6 41.1c-1.3-.7-3.1-1.2-4.6-1.2-2.8 0-5 2-5 5.1 0 3.2 1.6 3.6 4 4.4.8.2 2.2.6 2.2 1.7s-.9 1.6-1.8 1.6c-1.2 0-2.4-.8-3.3-1.6l-1.6 3.2c1.5 1 3.2 1.7 5 1.7 1.5 0 3-.4 4.2-1.4 1.1-1 1.4-2.6 1.4-4.1 0-2.5-1.5-3.6-3.5-4.2l-1-.3c-.6-.3-1.6-.6-1.6-1.5s.9-1.3 1.6-1.3c.9 0 1.8.4 2.4 1z" fill="#00305C"></path>
  <path d="M96.8 41.1a10 10 0 0 0-4.5-1.2c-2.9 0-5 2-5 5.1 0 3.2 1.6 3.6 4 4.4.7.2 2.2.6 2.2 1.7s-1 1.6-1.8 1.6c-1.3 0-2.4-.8-3.3-1.6l-1.6 3.2c1.5 1 3.2 1.7 5 1.7a6 6 0 0 0 4.1-1.4c1.2-1 1.5-2.6 1.5-4.1 0-2.5-1.5-3.6-3.5-4.2l-1-.3c-.6-.3-1.6-.6-1.6-1.5s.9-1.3 1.6-1.3c.9 0 1.8.4 2.4 1z" fill="#00305C"></path>
  <path d="M102.5 40.3h-3.8v15.3h3.8z" fill="#00305C"></path>
  <path d="M114.7 40.6a7.6 7.6 0 0 0-8.9 1.7 8.3 8.3 0 0 0-2.2 5.7 7.8 7.8 0 0 0 7.8 8c1.1 0 2-.3 3.3-.7v-4.8c-.8 1-2 1.7-3.3 1.7-2.3 0-3.9-1.8-3.9-4.2 0-2.4 1.6-4.3 3.9-4.3a4 4 0 0 1 3.3 1.7z" fill="#00305C"></path>
  <path d="M125.2 40.3v8c0 2-.1 4.2-2.5 4.2s-2.5-2.2-2.5-4.1v-8.1h-3.8v8.6c0 2 .1 4 1.5 5.4 1.2 1.3 3.1 1.7 4.8 1.7 1.7 0 3.6-.4 4.8-1.7 1.4-1.5 1.5-3.4 1.5-5.4v-8.6z" fill="#00305C"></path>
  <path d="M138.3 49.3c2-.4 3.2-2.2 3.2-4.3 0-3.3-2.2-4.7-5-4.7h-5.6v15.3h3.7v-5.9l3.6 6h4.6zm-3.7-6h.4c1.2 0 2.6.3 2.6 2 0 1.6-1.4 1.8-2.6 1.8h-.4z" fill="#00305C"></path>
  <path d="M138.3 49.3c2-.4 3.2-2.2 3.2-4.3 0-3.3-2.2-4.7-5-4.7h-5.6v15.3h3.7v-5.9l3.6 6h4.6zm-3.7-6h.4c1.2 0 2.6.3 2.6 2 0 1.6-1.4 1.8-2.6 1.8h-.4z" fill="#00305C"></path>
  <path d="m152.2 53 1 2.6h4l-5.5-15.3h-4L142 55.6h4l1-2.6zm-1-3.1H148l1.5-4.9z" fill="#00305C"></path>
  <path d="m152.2 53 1 2.6h4l-5.5-15.3h-4L142 55.6h4l1-2.6zm-1-3.1H148l1.5-4.9z" fill="#00305C"></path>
  <path d="m163.1 52.2 6.8-12h-12v3.5h5.7l-6.8 12h12.3v-3.5z" fill="#00305C"></path>
  <path d="M174.6 40.3h-3.7v15.3h3.7z" fill="#00305C"></path>
  <path d="M183.7 39.8a8 8 0 0 0-7.9 7.9c0 5 3.3 8.4 8 8.4 4.6 0 7.9-3.5 7.9-8.4a8 8 0 0 0-8-8m0 3.8c2.3 0 4.1 2 4.1 4 0 2.7-1.8 4.6-4 4.6-2.3 0-4.1-1.9-4.1-4.5a4 4 0 0 1 4-4" fill="#00305C"></path>
  <path d="M183.7 39.8a8 8 0 0 0-7.9 7.9c0 5 3.3 8.4 8 8.4 4.6 0 7.9-3.5 7.9-8.4a8 8 0 0 0-8-8m0 3.8c2.3 0 4.1 2 4.1 4 0 2.7-1.8 4.6-4 4.6-2.3 0-4.1-1.9-4.1-4.5a4 4 0 0 1 4-4" fill="#00305C"></path>
  <path d="M193 55.6h3.7v-9.4l7 9.4h3.7V40.3h-3.8v9.4l-6.9-9.4H193z" fill="#00305C"></path>
  <path d="M213.1 40.3h-3.7v15.3h3.7z" fill="#00305C"></path>
  <path d="M213.5 59.2H.9v.8h212.6z" fill="#00305C"></path>
</svg>