<?xml version="1.0" encoding="UTF-8"?><svg id="a" xmlns="http://www.w3.org/2000/svg" viewBox="0 0 467.58 83.35"><defs><style>.b{fill:#496178;}</style></defs><path class="b" d="M157.74,65.4c0,2.02,1.64,3.67,3.67,3.67s3.67-1.64,3.67-3.67-1.64-3.67-3.67-3.67-3.67,1.64-3.67,3.67"/><path class="b" d="M113.2,20.89c-11.25,0-20.4,9.16-20.4,20.41s9.16,20.4,20.4,20.4,20.41-9.15,20.41-20.4-9.15-20.41-20.41-20.41m0,48.2c-15.33,0-27.8-12.47-27.8-27.8s12.47-27.8,27.8-27.8,27.8,12.47,27.8,27.8-12.47,27.8-27.8,27.8"/><path class="b" d="M209.61,20.89h-48.2c-2.05,0-3.7-1.65-3.7-3.7s1.65-3.7,3.7-3.7h48.2c2.04,0,3.7,1.65,3.7,3.7s-1.65,3.7-3.7,3.7"/><path class="b" d="M209.61,69.1c-.95,0-1.89-.36-2.62-1.08l-23.02-23.02h-22.56c-2.05,0-3.7-1.65-3.7-3.7s1.65-3.7,3.7-3.7h23.89c1.09,0,2.2,.46,2.97,1.23l23.96,23.96c1.44,1.44,1.44,3.78,0,5.23-.72,.72-1.67,1.08-2.61,1.08"/><path class="b" d="M65.01,69.1h-24.1c-15.33,0-27.8-12.47-27.8-27.8S25.58,13.5,40.91,13.5h24.1c2.04,0,3.69,1.66,3.69,3.7s-1.65,3.7-3.69,3.7h-24.1c-11.26,0-20.41,9.15-20.41,20.4s9.15,20.4,20.41,20.4h24.1c2.04,0,3.69,1.66,3.69,3.7s-1.65,3.7-3.69,3.7"/><g><path class="b" d="M306.01,69.1c-2.04,0-3.7-1.66-3.7-3.7V17.2c0-2.04,1.65-3.7,3.7-3.7s3.7,1.66,3.7,3.7v48.2c0,2.04-1.65,3.7-3.7,3.7"/><path class="b" d="M330.11,69.1c-2.04,0-3.7-1.65-3.7-3.7V17.1c0-2.39,2.31-3.27,2.31-3.27,1.4-.58,3.01-.25,4.08,.84l41.48,41.76V17.2c0-2.04,1.65-3.7,3.7-3.7s3.7,1.66,3.7,3.7v47.5c0,3.29-2.29,4.06-2.29,4.06-1.4,.58-3,.26-4.08-.81l-41.5-41.78v39.24c0,2.04-1.65,3.7-3.7,3.7"/></g><path class="b" d="M450.61,69.1c-1.35,0-2.66-.75-3.31-2.05l-20.79-41.59-20.79,41.59c-.92,1.83-3.13,2.57-4.96,1.65-1.82-.91-2.56-3.14-1.65-4.96,0,0,23.43-46.93,24.1-48.21,.68-1.28,1.56-1.98,3.3-1.98s2.73,.81,3.37,2.11l24.04,48.08c.91,1.82,.17,4.05-1.65,4.96-.53,.27-1.1,.39-1.65,.39"/><path class="b" d="M233.7,13.55c1.35,0,2.66,.75,3.31,2.05l20.79,41.59,20.79-41.59c.92-1.83,3.13-2.57,4.96-1.65,1.82,.92,2.56,3.13,1.65,4.96,0,0-23.43,46.93-24.1,48.21-.67,1.29-1.56,1.98-3.3,1.98s-2.73-.81-3.37-2.11l-24.04-48.08c-.91-1.83-.17-4.05,1.65-4.96,.53-.26,1.1-.39,1.65-.39"/></svg>