<svg width="389" height="208" viewBox="0 0 389 208" fill="none" xmlns="http://www.w3.org/2000/svg">
<g clip-path="url(#clip0)">
<path d="M36.3599 206.92L47.2299 185.86H37.3099C37.1615 185.14 37.0878 184.406 37.0899 183.67C37.0853 182.908 37.1591 182.147 37.3099 181.4H54.6599L54.9499 181.83L44.1799 202.83H54.4099C54.5505 203.555 54.6208 204.292 54.6199 205.03C54.6226 205.788 54.5523 206.545 54.4099 207.29H36.6099L36.3599 206.92ZM58.9699 181.4C59.4105 181.33 59.8544 181.284 60.2999 181.26H62.8899C63.3387 181.283 63.786 181.33 64.2299 181.4V194.83C64.2189 196.085 64.2723 197.34 64.3899 198.59C64.458 199.484 64.6778 200.36 65.0399 201.18C65.3171 201.818 65.7945 202.348 66.3999 202.69C67.109 203.046 67.8973 203.214 68.6899 203.18C69.4762 203.216 70.2583 203.047 70.9599 202.69C71.5575 202.341 72.0299 201.813 72.3099 201.18C72.6673 200.358 72.8869 199.483 72.9599 198.59C73.0599 197.59 73.1199 196.29 73.1199 194.83V181.4C73.5999 181.33 74.0499 181.28 74.4899 181.26C74.9299 181.24 75.3399 181.26 75.7499 181.26H77.0599C77.512 181.283 77.9626 181.33 78.4099 181.4V195.94C78.4248 197.554 78.2807 199.165 77.9799 200.75C77.7339 202.089 77.2055 203.361 76.4299 204.48C75.6626 205.532 74.6263 206.357 73.4299 206.87C70.3646 208.003 66.9952 208.003 63.9299 206.87C62.7334 206.357 61.6972 205.532 60.9299 204.48C60.1542 203.361 59.6259 202.089 59.3799 200.75C59.079 199.165 58.935 197.554 58.9499 195.94L58.9699 181.4ZM101.09 202.39C101.401 203.059 101.658 203.751 101.86 204.46C102.07 205.173 102.221 205.902 102.31 206.64C101.224 207.057 100.098 207.358 98.9499 207.54C97.8829 207.688 96.807 207.762 95.7299 207.76C93.8905 207.795 92.0633 207.455 90.3599 206.76C88.8786 206.134 87.5563 205.184 86.4899 203.98C85.4191 202.748 84.6156 201.308 84.1299 199.75C83.5876 198.03 83.3209 196.234 83.3399 194.43C83.3248 192.614 83.6051 190.807 84.1699 189.08C84.6784 187.514 85.4905 186.063 86.5599 184.81C87.6201 183.603 88.9351 182.647 90.4099 182.01C92.0566 181.313 93.8321 180.972 95.6199 181.01C96.6835 181.004 97.7462 181.074 98.7999 181.22C99.8805 181.4 100.937 181.702 101.95 182.12C101.902 182.84 101.758 183.549 101.52 184.23C101.28 184.91 101.02 185.6 100.73 186.3C100.002 186.043 99.2569 185.839 98.4999 185.69C97.7368 185.561 96.9637 185.501 96.1899 185.51C95.1913 185.451 94.1927 185.624 93.2717 186.014C92.3507 186.404 91.5322 187.002 90.8799 187.76C89.6499 189.26 89.0299 191.48 89.0299 194.44C89.0299 200.293 91.5132 203.22 96.4799 203.22C97.2636 203.229 98.0466 203.168 98.8199 203.04C99.5922 202.882 100.351 202.665 101.09 202.39V202.39ZM122.98 202.39C123.291 203.059 123.548 203.751 123.75 204.46C123.958 205.16 124.109 205.876 124.2 206.6C123.114 207.017 121.988 207.318 120.84 207.5C119.77 207.649 118.69 207.722 117.61 207.72C115.774 207.755 113.95 207.415 112.25 206.72C110.766 206.099 109.442 205.148 108.38 203.94C107.309 202.708 106.506 201.268 106.02 199.71C105.478 197.99 105.211 196.194 105.23 194.39C105.21 192.573 105.49 190.766 106.06 189.04C106.568 187.474 107.381 186.023 108.45 184.77C109.51 183.563 110.825 182.607 112.3 181.97C113.947 181.273 115.722 180.932 117.51 180.97C118.574 180.964 119.636 181.034 120.69 181.18C121.77 181.361 122.827 181.663 123.84 182.08C123.792 182.8 123.648 183.509 123.41 184.19C123.17 184.87 122.91 185.56 122.62 186.26C121.892 186.003 121.147 185.799 120.39 185.65C119.627 185.521 118.854 185.461 118.08 185.47C117.081 185.411 116.083 185.584 115.162 185.974C114.241 186.364 113.422 186.962 112.77 187.72C111.54 189.22 110.92 191.44 110.92 194.4C110.92 200.253 113.403 203.18 118.37 203.18C119.154 203.189 119.937 203.128 120.71 203C121.481 202.855 122.24 202.651 122.98 202.39V202.39ZM128.85 181.4C129.716 181.258 130.592 181.185 131.47 181.18C132.364 181.186 133.257 181.259 134.14 181.4V191.55H142.81V181.4C143.68 181.259 144.559 181.185 145.44 181.18C146.331 181.185 147.22 181.259 148.1 181.4V207.28C146.349 207.574 144.561 207.574 142.81 207.28V196.09H134.14V207.28C133.271 207.425 132.391 207.498 131.51 207.5C130.619 207.502 129.729 207.428 128.85 207.28V181.4ZM153.86 181.4H168.55C168.699 182.124 168.772 182.861 168.77 183.6C168.775 184.359 168.701 185.116 168.55 185.86H159.12V191.48H166.61C166.747 192.216 166.817 192.962 166.82 193.71C166.821 194.472 166.751 195.232 166.61 195.98H159.12V202.82H168.8C168.949 203.544 169.022 204.281 169.02 205.02C169.025 205.779 168.951 206.536 168.8 207.28H153.86V181.4ZM178.74 185.86H172.31C172.159 185.116 172.085 184.359 172.09 183.6C172.087 182.861 172.161 182.124 172.31 181.4H190.49C190.631 182.125 190.701 182.862 190.7 183.6C190.703 184.358 190.632 185.115 190.49 185.86H184.04V207.28L182.75 207.41C182.31 207.41 181.89 207.46 181.49 207.46H180.17C179.694 207.434 179.22 207.384 178.75 207.31L178.74 185.86ZM199.87 185.86H193.43C193.279 185.116 193.205 184.359 193.21 183.6C193.207 182.861 193.281 182.124 193.43 181.4H211.61C211.751 182.125 211.821 182.862 211.82 183.6C211.823 184.358 211.752 185.115 211.61 185.86H205.16V207.28L203.87 207.41C203.44 207.41 203.02 207.46 202.61 207.46H201.29C200.814 207.434 200.34 207.384 199.87 207.31V185.86ZM215.96 181.4C216.83 181.259 217.709 181.185 218.59 181.18C219.481 181.186 220.37 181.259 221.25 181.4V207.28C219.499 207.574 217.711 207.574 215.96 207.28V181.4ZM249.87 193.86C250.729 193.715 251.599 193.641 252.47 193.64C253.348 193.642 254.224 193.715 255.09 193.86V206.56C253.832 207.025 252.523 207.334 251.19 207.48C250.012 207.628 248.827 207.708 247.64 207.72C245.745 207.757 243.862 207.417 242.1 206.72C240.569 206.116 239.2 205.164 238.1 203.94C237.016 202.715 236.205 201.273 235.72 199.71C235.178 197.99 234.911 196.194 234.93 194.39C234.915 192.574 235.195 190.767 235.76 189.04C236.268 187.474 237.081 186.023 238.15 184.77C239.21 183.563 240.525 182.607 242 181.97C243.647 181.273 245.422 180.932 247.21 180.97C248.287 180.965 249.363 181.036 250.43 181.18C251.499 181.352 252.544 181.655 253.54 182.08C253.492 182.8 253.348 183.509 253.11 184.19C252.87 184.87 252.61 185.56 252.32 186.26C251.592 186.003 250.847 185.799 250.09 185.65C249.327 185.521 248.554 185.461 247.78 185.47C246.781 185.411 245.783 185.584 244.862 185.974C243.941 186.364 243.122 186.962 242.47 187.72C241.24 189.22 240.62 191.44 240.62 194.4C240.62 197.36 241.23 199.55 242.45 201C243.127 201.747 243.965 202.331 244.9 202.708C245.835 203.086 246.844 203.247 247.85 203.18C248.218 203.185 248.585 203.161 248.95 203.11L249.83 202.96L249.87 193.86ZM260.67 181.4L263.67 181.09C264.6 181.01 265.62 180.97 266.75 180.97C268.062 180.969 269.37 181.09 270.66 181.33C271.884 181.545 273.059 181.979 274.13 182.61C275.157 183.215 276.016 184.068 276.63 185.09C277.33 186.304 277.677 187.69 277.63 189.09C277.644 189.95 277.522 190.808 277.27 191.63C277.053 192.309 276.743 192.955 276.35 193.55C276.008 194.073 275.601 194.55 275.14 194.97C274.765 195.341 274.357 195.676 273.92 195.97L273.31 196.36L279.61 207.31L278.1 207.45C277.57 207.5 277.03 207.52 276.48 207.52C275.576 207.521 274.673 207.451 273.78 207.31L267.01 195.31L267.87 194.88C268.21 194.71 268.62 194.5 269.1 194.23C269.599 193.954 270.062 193.618 270.48 193.23C270.941 192.82 271.327 192.333 271.62 191.79C272.031 190.922 272.171 189.951 272.023 189.002C271.875 188.054 271.445 187.172 270.79 186.47C269.835 185.729 268.648 185.35 267.44 185.4C266.958 185.398 266.476 185.435 266 185.51V207.36L264.7 207.49C264.27 207.49 263.85 207.54 263.44 207.54H262.15C261.678 207.514 261.207 207.464 260.74 207.39L260.67 181.4ZM293.31 207.72C291.59 207.76 289.882 207.419 288.31 206.72C286.936 206.084 285.736 205.128 284.81 203.93C283.874 202.671 283.195 201.241 282.81 199.72C282.352 197.988 282.127 196.202 282.14 194.41C282.128 192.605 282.353 190.806 282.81 189.06C283.194 187.521 283.873 186.07 284.81 184.79C285.733 183.587 286.934 182.626 288.31 181.99C289.907 181.323 291.62 180.98 293.35 180.98C295.08 180.98 296.793 181.323 298.39 181.99C299.763 182.626 300.961 183.587 301.88 184.79C302.817 186.07 303.496 187.521 303.88 189.06C304.341 190.805 304.567 192.605 304.55 194.41C304.568 196.202 304.343 197.989 303.88 199.72C303.495 201.241 302.815 202.671 301.88 203.93C300.958 205.127 299.761 206.084 298.39 206.72C296.792 207.428 295.057 207.77 293.31 207.72V207.72ZM293.31 203.32C297.03 203.32 298.89 200.347 298.89 194.4C298.89 191.42 298.44 189.187 297.54 187.7C297.114 186.977 296.496 186.386 295.754 185.993C295.013 185.599 294.177 185.418 293.34 185.47C289.573 185.47 287.69 188.447 287.69 194.4C287.69 200.353 289.563 203.327 293.31 203.32V203.32ZM309.49 181.4C309.93 181.33 310.374 181.284 310.82 181.26H313.41C313.859 181.283 314.306 181.33 314.75 181.4V194.83C314.739 196.085 314.792 197.34 314.91 198.59C314.978 199.484 315.198 200.36 315.56 201.18C315.837 201.818 316.315 202.348 316.92 202.69C317.629 203.046 318.417 203.214 319.21 203.18C319.996 203.216 320.778 203.047 321.48 202.69C322.077 202.341 322.55 201.813 322.83 201.18C323.187 200.358 323.407 199.483 323.48 198.59C323.58 197.59 323.64 196.29 323.64 194.83V181.4C324.12 181.33 324.57 181.28 325.01 181.26C325.45 181.24 325.86 181.26 326.27 181.26H327.58C328.032 181.283 328.483 181.33 328.93 181.4V195.94C328.945 197.554 328.801 199.165 328.5 200.75C328.254 202.089 327.726 203.361 326.95 204.48C326.183 205.532 325.146 206.357 323.95 206.87C320.885 208.003 317.515 208.003 314.45 206.87C313.253 206.357 312.217 205.532 311.45 204.48C310.674 203.361 310.146 202.089 309.9 200.75C309.599 199.165 309.455 197.554 309.47 195.94L309.49 181.4ZM334.51 181.29C335.61 181.2 336.73 181.12 337.86 181.06C338.99 181 340.13 180.97 341.28 180.97C342.505 180.972 343.728 181.093 344.93 181.33C346.133 181.537 347.282 181.983 348.31 182.64C349.338 183.339 350.173 184.284 350.74 185.39C351.417 186.815 351.739 188.383 351.68 189.96C351.742 191.534 351.419 193.099 350.74 194.52C350.172 195.619 349.345 196.563 348.33 197.27C347.334 197.946 346.211 198.412 345.03 198.64C343.851 198.877 342.652 198.998 341.45 199H340.57L339.8 198.95V207.26C339.356 207.334 338.909 207.384 338.46 207.41H335.94C335.49 207.41 335.02 207.34 334.54 207.26L334.51 181.29ZM339.77 194.64C340.037 194.687 340.308 194.711 340.58 194.71H341.49C342.088 194.714 342.683 194.636 343.26 194.48C343.817 194.33 344.337 194.068 344.79 193.71C345.251 193.324 345.615 192.834 345.85 192.28C346.133 191.593 346.27 190.853 346.25 190.11C346.269 189.341 346.133 188.576 345.85 187.86C345.621 187.289 345.257 186.781 344.79 186.38C344.343 186.009 343.821 185.739 343.26 185.59C342.683 185.431 342.088 185.35 341.49 185.35H340.76C340.527 185.35 340.193 185.38 339.76 185.44L339.77 194.64Z" fill="#58585A"/>
<path d="M0.609863 159.15H388.08" stroke="#58585A" stroke-width="2" stroke-miterlimit="10"/>
<path d="M124.24 116.39H111.79C101.87 116.32 100.55 106.59 101.79 98.85C103.62 84.46 105.79 68.01 107.67 53.01C104.35 55.39 99.1899 56.66 92.9299 57.53L87.6499 99C85.5099 115.34 91.3899 129.41 109.87 129.24H122.41C124.222 129.201 125.963 128.53 127.333 127.343C128.703 126.156 129.614 124.528 129.91 122.74C130.31 119.28 128.38 116.41 124.24 116.39V116.39ZM193.95 56.57C192.006 56.6104 190.139 57.3343 188.676 58.6144C187.213 59.8945 186.248 61.649 185.95 63.57C184.45 75.3433 182.953 87.1166 181.46 98.89C180.53 107.46 176.71 115.94 166.97 116.43H155.18C145.26 116.36 143.94 106.63 145.18 98.89C146.667 87.1233 148.163 75.35 149.67 63.57C149.81 62.6829 149.751 61.7757 149.498 60.9141C149.244 60.0526 148.803 59.2581 148.205 58.5881C147.606 57.9182 146.867 57.3896 146.039 57.0406C145.212 56.6916 144.317 56.5308 143.42 56.57C141.497 56.6327 139.656 57.3673 138.218 58.6461C136.781 59.925 135.836 61.6672 135.55 63.57C134.05 75.39 132.547 87.2133 131.04 99.04C128.91 115.23 134.81 129.18 153.04 129.28H165.95C184.06 129.13 193.5 115.87 195.6 99.04C197.1 87.22 198.603 75.3966 200.11 63.57C200.26 62.689 200.211 61.7856 199.966 60.926C199.722 60.0663 199.289 59.2721 198.699 58.6012C198.109 57.9303 197.376 57.3998 196.554 57.0484C195.733 56.697 194.843 56.5335 193.95 56.57V56.57ZM204.77 129.45C206.651 129.382 208.453 128.672 209.875 127.439C211.298 126.205 212.256 124.523 212.59 122.67L220.15 63.22C220.277 62.3578 220.212 61.4782 219.961 60.6438C219.709 59.8094 219.277 59.0407 218.695 58.3924C218.112 57.7441 217.394 57.2321 216.591 56.8929C215.788 56.5537 214.921 56.3957 214.05 56.43C210.47 56.35 206.62 59.64 206.23 63.22L198.67 122.64C198.538 123.504 198.599 124.386 198.848 125.224C199.097 126.062 199.529 126.834 200.112 127.485C200.695 128.136 201.415 128.65 202.221 128.99C203.026 129.329 203.897 129.487 204.77 129.45V129.45ZM300.77 116.49C299.49 116.49 297.11 116.49 295.93 112.13C295.392 109.903 295.227 107.601 295.44 105.32C298.14 84.0266 300.843 62.7433 303.55 41.47C303.674 40.6344 303.613 39.7816 303.369 38.9726C303.126 38.1636 302.707 37.4182 302.143 36.7897C301.578 36.1612 300.882 35.665 300.104 35.3367C299.325 35.0083 298.484 34.8557 297.64 34.89C295.802 34.9169 294.033 35.5917 292.645 36.7955C291.256 37.9993 290.337 39.6548 290.05 41.47C288.97 49.91 287.897 58.3433 286.83 66.77C280.21 60.3 271.72 57.77 262.95 57.44C242.9 56.68 223.36 73.95 220.68 94.1C218 114.25 234.36 129.34 253.93 129.31C264.696 129.28 275.076 125.298 283.1 118.12C284.16 121.514 286.292 124.474 289.178 126.553C292.063 128.632 295.544 129.719 299.1 129.65C300.936 129.619 302.703 128.943 304.091 127.74C305.479 126.537 306.399 124.883 306.69 123.07C306.813 122.234 306.749 121.381 306.505 120.572C306.26 119.763 305.841 119.018 305.275 118.389C304.71 117.761 304.013 117.265 303.235 116.937C302.456 116.609 301.614 116.456 300.77 116.49V116.49ZM255.47 116.3C243.05 116.3 232.47 106.97 233.87 94.1C235.31 80.86 248.4 70.2 261.31 70.3C273.8 70.39 284.55 81.14 282.7 94.1C280.85 107.06 268.06 116.25 255.47 116.3V116.3Z" fill="#00506E"/>
<path d="M382.23 116.49C380.95 116.49 378.57 116.49 377.38 112.13C376.842 109.899 376.677 107.595 376.89 105.31C377.22 101.04 377.39 96.76 377.52 92.47C379.16 72.95 363.52 57.56 344.41 57.47C324.03 57.34 304.82 73.98 302.14 94.13C299.46 114.28 315.82 129.37 335.39 129.34C346.156 129.31 356.536 125.328 364.56 118.15C365.618 121.545 367.751 124.505 370.636 126.585C373.522 128.664 377.004 129.75 380.56 129.68C382.397 129.651 384.165 128.976 385.553 127.772C386.941 126.569 387.861 124.914 388.15 123.1C388.281 122.261 388.224 121.403 387.984 120.589C387.743 119.775 387.324 119.024 386.757 118.391C386.191 117.759 385.491 117.26 384.708 116.931C383.925 116.602 383.078 116.452 382.23 116.49V116.49ZM336.93 116.3C324.51 116.3 313.93 106.97 315.33 94.1C316.77 80.86 329.86 70.2 342.77 70.3C355.26 70.39 366.01 81.14 364.16 94.1C362.31 107.06 349.52 116.25 336.93 116.3V116.3Z" fill="#00506E"/>
<path d="M24.31 93.3401C24.13 95.8501 22.31 97.1501 22.69 99.8301C24.53 114.53 32.05 131.19 22.93 143.35C41.32 141.82 55.99 125.94 52.54 108.65C51.9354 104.933 50.6106 101.369 48.64 98.1601C47.0533 90.9134 44.12 89.3501 39.84 93.4701C35.6 91.6401 28.08 88.8701 24.31 93.3401V93.3401Z" fill="url(#paint0_radial)"/>
<path d="M63.8999 47.6899C51.0399 67.0999 67.3199 70.1299 84.8999 64.3399L69.31 73.9799C64.8 76.7399 53.99 86.6399 48.79 86.6399C37.05 86.5899 31.51 68.4099 28.95 60.2299C40.31 56.7999 52.5899 51.0999 63.8999 47.6899V47.6899Z" fill="url(#paint1_linear)"/>
<path opacity="0.7" d="M59.31 61.1198C58.63 57.9398 59.92 53.4098 63.96 47.3198C52.65 50.7298 40.24 59.2098 28.96 62.6198C30.41 67.2598 32.82 75.0898 36.76 81.0298H36.9C34.84 69.0098 45.56 63.9198 59.31 61.1198V61.1198Z" fill="#003E56"/>
<path d="M105.14 0C111.65 12.22 119.88 29.36 111.89 42.73C105.8 52.93 94.7699 53.35 84.1799 54.46C69.7199 55.97 31.6499 55.04 35.6899 78.62C22.8599 79.41 5.82994 77.62 1.12994 63.44C-3.51006 49.44 6.91993 36.66 17.8499 29.63C44.3099 12.64 78.4099 16.31 105.14 0Z" fill="url(#paint2_linear)"/>
<path style="mix-blend-mode:overlay" opacity="0.7" d="M101.51 5.87012C95.0601 9.80012 85.5101 10.1101 82.9101 16.8701C79.6901 25.4201 89.3301 39.2301 83.7601 51.3401C112.62 48.5801 115.03 27.7501 101.51 5.87012Z" fill="url(#paint3_linear)"/>
<path opacity="0.7" d="M48.6299 98.1602C47.0433 90.9136 44.1099 89.3502 39.8299 93.4702C35.5999 91.6202 28.0799 88.0602 24.2999 92.5402C24.0798 94.6779 24.0798 96.8326 24.2999 98.9702C24.4699 100.54 23.0199 102.27 23.2999 103.89C24.2399 109.15 25.6299 114.58 26.5099 119.89C31.7199 109.42 39.9099 103.82 49.2699 99.2702C49.0699 98.9002 48.8499 98.5302 48.6299 98.1602V98.1602Z" fill="#003E56"/>
<path d="M84.31 61.98C68.65 68.69 50.41 66.85 35.18 74.74C19.18 83.05 21.46 98.62 25.31 113.58C36.06 98.75 52.94 97.7 68.92 92.33C83.31 87.53 88.5 76.39 84.31 61.98V61.98Z" fill="url(#paint4_linear)"/>
<path style="mix-blend-mode:overlay" d="M82.59 64.8301C79.59 66.6901 69.73 67.2501 68.06 69.8301C67.06 71.4201 68.78 75.3001 69.06 77.0501C69.78 81.6701 69.75 85.6401 67.75 89.9901C80.17 87.2501 85.87 76.9801 82.59 64.8301V64.8301Z" fill="url(#paint5_linear)"/>
</g>
<defs>
<radialGradient id="paint0_radial" cx="0" cy="0" r="1" gradientUnits="userSpaceOnUse" gradientTransform="translate(18.3692 123.488) rotate(22.9727) scale(44.3067 54.4371)">
<stop stop-color="#005070"/>
<stop offset="0.48" stop-color="#004059"/>
<stop offset="0.98" stop-color="#111211"/>
</radialGradient>
<linearGradient id="paint1_linear" x1="29.2322" y1="68.1148" x2="84.9479" y2="66.1594" gradientUnits="userSpaceOnUse">
<stop stop-color="#005070"/>
<stop offset="0.31" stop-color="#004059"/>
<stop offset="0.94" stop-color="#111211"/>
</linearGradient>
<linearGradient id="paint2_linear" x1="5.65689" y1="72.0842" x2="111.305" y2="10.6008" gradientUnits="userSpaceOnUse">
<stop stop-color="#003E56"/>
<stop offset="0.27" stop-color="#00506E"/>
<stop offset="1" stop-color="#B8CC1B"/>
</linearGradient>
<linearGradient id="paint3_linear" x1="87.2067" y1="30.7286" x2="107.489" y2="24.7235" gradientUnits="userSpaceOnUse">
<stop stop-color="white" stop-opacity="0"/>
<stop offset="0.12" stop-color="white" stop-opacity="0.02"/>
<stop offset="0.26" stop-color="white" stop-opacity="0.07"/>
<stop offset="0.41" stop-color="white" stop-opacity="0.16"/>
<stop offset="0.56" stop-color="white" stop-opacity="0.28"/>
<stop offset="0.72" stop-color="white" stop-opacity="0.44"/>
<stop offset="0.88" stop-color="white" stop-opacity="0.64"/>
<stop offset="1" stop-color="white" stop-opacity="0.8"/>
</linearGradient>
<linearGradient id="paint4_linear" x1="19.1668" y1="102.919" x2="85.7592" y2="64.47" gradientUnits="userSpaceOnUse">
<stop stop-color="#0088AA"/>
<stop offset="1" stop-color="#003E56"/>
</linearGradient>
<linearGradient id="paint5_linear" x1="72.6624" y1="77.2661" x2="82.2192" y2="77.864" gradientUnits="userSpaceOnUse">
<stop stop-color="white" stop-opacity="0"/>
<stop offset="0.1" stop-color="white" stop-opacity="0.04"/>
<stop offset="0.26" stop-color="white" stop-opacity="0.13"/>
<stop offset="0.47" stop-color="white" stop-opacity="0.29"/>
<stop offset="0.72" stop-color="white" stop-opacity="0.51"/>
<stop offset="0.99" stop-color="white" stop-opacity="0.79"/>
<stop offset="1" stop-color="white" stop-opacity="0.8"/>
</linearGradient>
<clipPath id="clip0">
<rect width="388.2" height="207.72" fill="white"/>
</clipPath>
</defs>
</svg>
