<svg xmlns="http://www.w3.org/2000/svg" fill="none" viewBox="0 0 1004 602">
  <defs/>
  <path fill="#B9C2C1" fill-rule="evenodd" d="M478.388 212.48c-14.306 0-25.909-11.573-25.909-25.841V66.049c0-14.268 11.603-25.84 25.909-25.84s25.909 11.572 25.909 25.84v120.59c0 14.268-11.603 25.841-25.909 25.841z" clip-rule="evenodd"/>
  <path fill="#32484F" fill-rule="evenodd" d="M392.026 212.48c-14.306 0-25.909-11.573-25.909-25.841V91.89c0-14.268 11.603-25.84 25.909-25.84s25.909 11.572 25.909 25.84v94.749c0 14.268-11.603 25.841-25.909 25.841z" clip-rule="evenodd"/>
  <path fill="#007882" fill-rule="evenodd" d="M305.664 212.48c-6.823 0-13.472-2.761-18.309-7.585-1.213-1.201-2.332-2.493-3.195-3.871-.95-1.465-1.814-2.929-2.418-4.479-.691-1.555-1.127-3.187-1.468-4.824a25.395 25.395 0 01-.519-5.082c0-6.805 2.764-13.437 7.6-18.261 6.041-6.033 14.941-8.785 23.404-7.063 1.641.345 3.278.776 4.837 1.465 1.55.603 3.022 1.464 4.4 2.411 1.468.862 2.768 1.977 3.972 3.187 4.837 4.824 7.605 11.456 7.605 18.261 0 1.719-.173 3.355-.519 5.082-.345 1.637-.863 3.269-1.468 4.824-.609 1.55-1.472 3.014-2.418 4.479-.95 1.378-1.986 2.67-3.2 3.871-1.204 1.211-2.504 2.326-3.972 3.278-1.378.861-2.85 1.718-4.4 2.326-1.559.689-3.196 1.119-4.837 1.464a25.667 25.667 0 01-5.095.517z" clip-rule="evenodd"/>
  <path fill="#32484F" fill-rule="evenodd" d="M564.75 212.48c-14.305 0-25.908-11.573-25.908-25.841V74.663c0-14.268 11.603-25.84 25.908-25.84 14.306 0 25.909 11.572 25.909 25.84V186.64c0 14.268-11.603 25.841-25.909 25.841z" clip-rule="evenodd"/>
  <path fill="#D87D5A" fill-rule="evenodd" d="M694.293 264.161c-6.822 0-13.472-2.761-18.308-7.584-4.837-4.82-7.6-11.452-7.6-18.257 0-1.722.173-3.359.518-5.086.341-1.637.777-3.269 1.468-4.819.605-1.551 1.468-3.015 2.418-4.479.946-1.378 1.982-2.671 3.196-3.876 9.582-9.648 26.945-9.648 36.613 0 1.213 1.205 2.332 2.498 3.195 3.876a32.16 32.16 0 012.423 4.479c.604 1.55 1.122 3.182 1.468 4.819.345 1.727.518 3.364.518 5.086 0 6.805-2.768 13.437-7.604 18.257-1.205 1.21-2.505 2.243-3.882 3.187-1.468.951-2.941 1.808-4.491 2.416-1.559.689-3.195 1.119-4.836 1.464a25.61 25.61 0 01-5.096.517z" clip-rule="evenodd"/>
  <path fill="#32484F" fill-rule="evenodd" d="M348.845 358.91c-14.306 0-25.908-11.573-25.908-25.841V238.32c0-14.268 11.602-25.84 25.908-25.84 14.306 0 25.909 11.572 25.909 25.84v94.749c0 14.268-11.603 25.841-25.909 25.841z" clip-rule="evenodd"/>
  <path fill="#B9C2C1" fill-rule="evenodd" d="M409.299 410.591V238.32c0-14.268 11.602-25.84 25.908-25.84 14.306 0 25.909 11.572 25.909 25.84v172.271c0 14.268-11.603 25.84-25.909 25.84s-25.908-11.572-25.908-25.84z" clip-rule="evenodd"/>
  <path fill="#32484F" fill-rule="evenodd" d="M521.569 341.683c-14.306 0-25.908-11.573-25.908-25.841V238.32c0-14.268 11.602-25.84 25.908-25.84 14.306 0 25.909 11.572 25.909 25.84v77.522c0 14.268-11.603 25.841-25.909 25.841z" clip-rule="evenodd"/>
  <path fill="#007882" fill-rule="evenodd" d="M607.932 307.228c-14.306 0-25.909-11.572-25.909-25.84V238.32c0-14.268 11.603-25.84 25.909-25.84 14.305 0 25.908 11.572 25.908 25.84v43.068c0 14.268-11.603 25.84-25.908 25.84zm43.181-94.748c-14.306 0-25.909-11.573-25.909-25.841v-68.908c0-14.268 11.603-25.84 25.909-25.84s25.908 11.572 25.908 25.84v68.908c0 14.268-11.602 25.841-25.908 25.841z" clip-rule="evenodd"/>
  <path fill="#000" fill-rule="evenodd" d="M23.909 600v-37.649h31.474v-18.697H23.909v-17.612H67V506H0v94h23.909zM156.8 575.65c3.93-2.135 7.056-5.204 9.383-9.211 2.322-3.999 3.485-8.669 3.485-14.011 0-5.333-1.142-9.982-3.416-13.942-2.279-3.956-5.388-7.025-9.318-9.203-3.931-2.178-8.311-3.271-13.137-3.271-4.916 0-9.339 1.093-13.27 3.271-3.935 2.178-7.039 5.247-9.314 9.203-2.279 3.96-3.42 8.609-3.42 13.942 0 5.342 1.141 10.012 3.42 14.011 2.275 4.007 5.405 7.076 9.379 9.211 3.978 2.135 8.38 3.202 13.205 3.202 4.735 0 9.068-1.067 13.003-3.202zm-38.67 19.214c-7.64-4.089-13.672-9.805-18.096-17.148-4.423-7.339-6.637-15.767-6.637-25.288 0-9.513 2.214-17.962 6.637-25.348 4.424-7.382 10.456-13.12 18.096-17.213 7.641-4.09 16.193-6.138 25.667-6.138 9.383 0 17.893 2.048 25.533 6.138 7.645 4.093 13.651 9.831 18.031 17.213 4.381 7.386 6.569 15.835 6.569 25.348 0 9.521-2.188 17.949-6.569 25.288-4.38 7.343-10.386 13.059-18.031 17.148-7.64 4.094-16.15 6.138-25.533 6.138-9.474 0-18.026-2.044-25.667-6.138zM231.727 578.251c-4.199-7.339-6.3-15.947-6.3-25.821 0-9.87 2.101-18.479 6.3-25.818 4.203-7.339 10.165-12.986 17.897-16.946 7.727-3.956 16.686-5.936 26.873-5.936 6.707 0 12.691.667 17.966 1.997 5.267 1.339 10.14 3.427 14.611 6.272v22.417c-3.935-3.108-8.38-5.381-13.339-6.805-4.96-1.421-10.659-2.135-17.093-2.135-9.201 0-16.31 2.384-21.313 7.145-5.003 4.756-7.506 11.359-7.506 19.809 0 8.453 2.525 15.078 7.575 19.881 5.046 4.804 12.133 7.206 21.244 7.206 6.434 0 12.198-.753 17.292-2.264 5.093-1.515 9.828-3.913 14.213-7.206v22.284c-8.493 5.781-19.709 8.669-33.65 8.669-10.187 0-19.146-1.959-26.873-5.871-7.732-3.913-13.694-9.539-17.897-16.878z" clip-rule="evenodd"/>
  <mask id="a" width="86" height="96" x="345" y="505" maskUnits="userSpaceOnUse">
    <path fill="#fff" d="M430.783 505.728V601h-85.118v-95.272h85.118z"/>
  </mask>
  <g mask="url(#a)">
    <path fill="#000" fill-rule="evenodd" d="M356.389 589.727c-7.152-7.515-10.724-17.458-10.724-29.824v-54.175h23.726v54.441c0 6.229 1.673 10.946 5.024 14.145 3.352 3.202 7.978 4.803 13.876 4.803s10.499-1.601 13.807-4.803c3.303-3.199 4.959-7.916 4.959-14.145v-54.441h23.726v54.175c0 12.456-3.554 22.417-10.659 29.893C413.02 597.264 402.409 601 388.291 601c-14.122 0-24.755-3.757-31.902-11.273z" clip-rule="evenodd"/>
  </g>
  <mask id="b" width="70" height="98" x="466" y="503" maskUnits="userSpaceOnUse">
    <path fill="#fff" d="M535.871 503.729V601h-69.569v-97.271h69.569z"/>
  </mask>
  <g mask="url(#b)">
    <path fill="#000" fill-rule="evenodd" d="M480.645 599.332c-5.807-1.11-10.59-2.643-14.343-4.601v-21.216a66.122 66.122 0 0015.082 5.604c5.228 1.248 10.209 1.868 14.944 1.868 4.38 0 7.683-.667 9.919-2.006 2.231-1.33 3.351-3.241 3.351-5.738 0-1.863-.601-3.486-1.807-4.863-1.207-1.382-2.975-2.652-5.297-3.805-2.322-1.158-5.941-2.76-10.858-4.804-8.665-3.646-14.965-7.696-18.9-12.143-3.93-4.446-5.898-9.917-5.898-16.412 0-5.333 1.496-10.094 4.493-14.278 2.992-4.179 7.169-7.425 12.531-9.74 5.361-2.312 11.527-3.47 18.498-3.47 5.72 0 10.81.448 15.281 1.335a54.791 54.791 0 0112.868 4.27v20.682c-7.865-4.094-15.774-6.138-23.726-6.138-4.289 0-7.705.693-10.252 2.066-2.551 1.382-3.822 3.357-3.822 5.94s1.292 4.67 3.887 6.271c2.594 1.602 7.372 3.784 14.342 6.539 6.344 2.578 11.282 5.118 14.814 7.606 3.529 2.487 6.097 5.38 7.706 8.673 1.608 3.293 2.413 7.472 2.413 12.543 0 8.63-3.148 15.366-9.448 20.213-6.3 4.851-15.705 7.274-28.219 7.274a92.916 92.916 0 01-17.559-1.67z" clip-rule="evenodd"/>
  </g>
  <path fill="#000" fill-rule="evenodd" d="M586.271 505.73l20.911 70.854 20.643-70.854h10.719l20.513 70.854 20.911-70.854h14.208l-27.345 93.271h-13.002l-20.777-70.454-20.642 70.454h-13.002l-27.345-93.271h14.208zM766.428 550.698c5.985 0 10.741-1.398 14.274-4.205 3.528-2.802 5.292-6.96 5.292-12.474 0-6.047-1.72-10.36-5.158-12.943-3.442-2.578-8.242-3.87-14.408-3.87h-21.715v33.492h21.715zm-35.391-44.967h37.666c10.01 0 17.694 2.402 23.055 7.205 5.366 4.804 8.047 11.833 8.047 21.083 0 6.853-1.833 12.655-5.5 17.411-3.662 4.761-8.847 7.985-15.545 9.676l20.643 37.896h-14.208l-19.973-36.828h-20.509v36.828h-13.676v-93.271zM852.345 505.73l26.004 35.231 26.004-35.231h15.683l-33.913 45.901 35.12 47.37H905.56l-27.211-36.828-27.211 36.828h-15.683l34.985-47.37-33.779-45.901h15.684z" clip-rule="evenodd"/>
  <path fill="#000" d="M976.534 551.385c-4.352 0-8.32-.982-11.904-2.944-3.584-1.963-6.422-4.694-8.512-8.192-2.048-3.542-3.072-7.595-3.072-12.16 0-4.566 1.024-8.619 3.072-12.16 2.09-3.542 4.928-6.294 8.512-8.256 3.584-1.963 7.552-2.944 11.904-2.944s8.298.981 11.84 2.944c3.584 1.962 6.4 4.714 8.448 8.256 2.09 3.541 3.136 7.594 3.136 12.16 0 4.565-1.046 8.618-3.136 12.16-2.048 3.498-4.864 6.229-8.448 8.192-3.542 1.962-7.488 2.944-11.84 2.944zm0-5.568c3.285 0 6.25-.704 8.896-2.112 2.688-1.408 4.8-3.456 6.336-6.144 1.536-2.688 2.304-5.846 2.304-9.472 0-3.584-.768-6.72-2.304-9.408-1.536-2.688-3.627-4.736-6.272-6.144-2.646-1.451-5.632-2.176-8.96-2.176-3.371 0-6.4.725-9.088 2.176-2.646 1.408-4.736 3.456-6.272 6.144-1.494 2.645-2.24 5.781-2.24 9.408 0 3.626.768 6.784 2.304 9.472 1.536 2.688 3.626 4.736 6.272 6.144 2.688 1.408 5.696 2.112 9.024 2.112zm-9.792-32.192h11.328c3.114 0 5.546.725 7.296 2.176 1.749 1.408 2.624 3.52 2.624 6.336 0 2.133-.64 3.946-1.92 5.44-1.238 1.45-3.008 2.389-5.312 2.816l6.016 11.84h-5.184l-5.952-11.648h-3.84v11.648h-5.056v-28.608zm10.88 12.928c1.92 0 3.328-.342 4.224-1.024.938-.683 1.408-1.814 1.408-3.392 0-1.792-.448-2.966-1.344-3.52-.854-.598-2.283-.896-4.288-.896h-5.824v8.832h5.824z"/>
</svg>
