<?xml version="1.0" encoding="UTF-8" standalone="no"?><!DOCTYPE svg PUBLIC "-//W3C//DTD SVG 1.1//EN" "http://www.w3.org/Graphics/SVG/1.1/DTD/svg11.dtd"><svg width="100%" height="100%" viewBox="0 0 115 33" version="1.1" xmlns="http://www.w3.org/2000/svg" xmlns:xlink="http://www.w3.org/1999/xlink" xml:space="preserve" xmlns:serif="http://www.serif.com/" style="fill-rule:evenodd;clip-rule:evenodd;stroke-miterlimit:2;"><g><clipPath id="_clip1"><path d="M3.46,3.256c-0.102,0 -0.184,0.081 -0.184,0.181l-0,4.346c-0,0.1 0.082,0.181 0.184,0.181l2.953,-0c0.102,-0 0.184,-0.081 0.184,-0.181l0,-4.346c0,-0.1 -0.082,-0.181 -0.184,-0.181l-2.953,0Zm2.953,5.72l-2.953,-0c-0.671,-0 -1.216,-0.535 -1.216,-1.193l-0,-4.346c-0,-0.658 0.545,-1.193 1.216,-1.193l2.953,-0c0.671,-0 1.216,0.535 1.216,1.193l0,4.346c0,0.658 -0.545,1.193 -1.216,1.193Z"/></clipPath><g clip-path="url(#_clip1)"><rect x="-0" y="0" width="9.873" height="11.22" style="fill:#1d66ff;fill-rule:nonzero;"/></g><path d="M3.46,3.256c-0.102,0 -0.184,0.081 -0.184,0.181l-0,4.346c-0,0.1 0.082,0.181 0.184,0.181l2.953,-0c0.102,-0 0.184,-0.081 0.184,-0.181l0,-4.346c0,-0.1 -0.082,-0.181 -0.184,-0.181l-2.953,0Zm2.953,5.72l-2.953,-0c-0.671,-0 -1.216,-0.535 -1.216,-1.193l-0,-4.346c-0,-0.658 0.545,-1.193 1.216,-1.193l2.953,-0c0.671,-0 1.216,0.535 1.216,1.193l0,4.346c0,0.658 -0.545,1.193 -1.216,1.193Z" style="fill:#ff781d;stroke:#ff781d;stroke-width:1.27px;"/><clipPath id="_clip2"><path d="M25.507,10.771l-4.53,0c-0.289,0 -0.523,0.232 -0.523,0.517c0,0.007 0.002,0.014 0.002,0.02c-0,0.008 -0.002,0.016 -0.002,0.024l0,10.352c0,1.33 -0.203,2.495 -0.603,3.462c-0.395,0.956 -0.967,1.764 -1.697,2.4c-0.736,0.641 -1.646,1.128 -2.703,1.446c-1.079,0.326 -2.304,0.491 -3.638,0.491c-2.665,-0 -4.78,-0.649 -6.287,-1.928c-1.483,-1.259 -2.236,-3.19 -2.236,-5.74l0,-9.752c0,-0.142 0.117,-0.257 0.261,-0.257l3.034,-0c0.142,-0 0.256,0.113 0.256,0.253l0,9.651c0,1.647 0.456,2.919 1.354,3.78c0.23,0.22 0.611,0.191 0.8,-0.085c0.141,-0.207 0.101,-0.492 -0.08,-0.665c-0.682,-0.659 -1.027,-1.678 -1.027,-3.03l-0,-10.422c-0,-0.285 -0.235,-0.517 -0.523,-0.517l-4.598,0c-0.289,0 -0.523,0.232 -0.523,0.517l-0,10.527c-0,2.865 0.875,5.06 2.6,6.525c1.703,1.445 4.047,2.178 6.969,2.178c1.438,-0 2.765,-0.18 3.944,-0.536c1.2,-0.362 2.239,-0.92 3.088,-1.659c0.853,-0.743 1.518,-1.68 1.975,-2.785c0.452,-1.093 0.68,-2.389 0.68,-3.854l0,-9.623c0,-0.141 0.116,-0.255 0.258,-0.255l2.964,-0c0.144,-0 0.261,0.116 0.261,0.259l0,11.744c0,1.509 -0.413,3.514 -1.577,4.218c-0.23,0.139 -0.341,0.428 -0.228,0.671c0.09,0.194 0.281,0.303 0.477,0.303c0.091,-0 0.183,-0.024 0.267,-0.073c1.956,-1.151 2.108,-4.209 2.108,-5.119l-0,-12.521c-0,-0.285 -0.235,-0.517 -0.523,-0.517Z"/></clipPath><g clip-path="url(#_clip2)"><rect x="-0" y="8.527" width="28.274" height="24.235" style="fill:#ff781d;fill-rule:nonzero;"/></g><path d="M25.507,10.771l-4.53,0c-0.289,0 -0.523,0.232 -0.523,0.517c0,0.007 0.002,0.014 0.002,0.02c-0,0.008 -0.002,0.016 -0.002,0.024l0,10.352c0,1.33 -0.203,2.495 -0.603,3.462c-0.395,0.956 -0.967,1.764 -1.697,2.4c-0.736,0.641 -1.646,1.128 -2.703,1.446c-1.079,0.326 -2.304,0.491 -3.638,0.491c-2.665,-0 -4.78,-0.649 -6.287,-1.928c-1.483,-1.259 -2.236,-3.19 -2.236,-5.74l0,-9.752c0,-0.142 0.117,-0.257 0.261,-0.257l3.034,-0c0.142,-0 0.256,0.113 0.256,0.253l0,9.651c0,1.647 0.456,2.919 1.354,3.78c0.23,0.22 0.611,0.191 0.8,-0.085c0.141,-0.207 0.101,-0.492 -0.08,-0.665c-0.682,-0.659 -1.027,-1.678 -1.027,-3.03l-0,-10.422c-0,-0.285 -0.235,-0.517 -0.523,-0.517l-4.598,0c-0.289,0 -0.523,0.232 -0.523,0.517l-0,10.527c-0,2.865 0.875,5.06 2.6,6.525c1.703,1.445 4.047,2.178 6.969,2.178c1.438,-0 2.765,-0.18 3.944,-0.536c1.2,-0.362 2.239,-0.92 3.088,-1.659c0.853,-0.743 1.518,-1.68 1.975,-2.785c0.452,-1.093 0.68,-2.389 0.68,-3.854l0,-9.623c0,-0.141 0.116,-0.255 0.258,-0.255l2.964,-0c0.144,-0 0.261,0.116 0.261,0.259l0,11.744c0,1.509 -0.413,3.514 -1.577,4.218c-0.23,0.139 -0.341,0.428 -0.228,0.671c0.09,0.194 0.281,0.303 0.477,0.303c0.091,-0 0.183,-0.024 0.267,-0.073c1.956,-1.151 2.108,-4.209 2.108,-5.119l-0,-12.521c-0,-0.285 -0.235,-0.517 -0.523,-0.517Z" style="fill:none;stroke:#ff781d;stroke-width:1.27px;"/><clipPath id="_clip3"><path d="M21.86,3.256c-0.101,0 -0.184,0.081 -0.184,0.181l0,4.346c0,0.1 0.083,0.181 0.184,0.181l2.954,-0c0.101,-0 0.184,-0.081 0.184,-0.181l-0,-4.346c-0,-0.1 -0.083,-0.181 -0.184,-0.181l-2.954,0Zm2.954,5.72l-2.954,-0c-0.67,-0 -1.216,-0.535 -1.216,-1.193l0,-4.346c0,-0.658 0.546,-1.193 1.216,-1.193l2.954,-0c0.67,-0 1.216,0.535 1.216,1.193l-0,4.346c-0,0.658 -0.546,1.193 -1.216,1.193Z"/></clipPath><g clip-path="url(#_clip3)"><rect x="18.4" y="0" width="9.873" height="11.22" style="fill:#1d66ff;fill-rule:nonzero;"/></g><path d="M21.86,3.256c-0.101,0 -0.184,0.081 -0.184,0.181l0,4.346c0,0.1 0.083,0.181 0.184,0.181l2.954,-0c0.101,-0 0.184,-0.081 0.184,-0.181l-0,-4.346c-0,-0.1 -0.083,-0.181 -0.184,-0.181l-2.954,0Zm2.954,5.72l-2.954,-0c-0.67,-0 -1.216,-0.535 -1.216,-1.193l0,-4.346c0,-0.658 0.546,-1.193 1.216,-1.193l2.954,-0c0.67,-0 1.216,0.535 1.216,1.193l-0,4.346c-0,0.658 -0.546,1.193 -1.216,1.193Z" style="fill:#ff781d;stroke:#ff781d;stroke-width:1.27px;"/><path d="M45.671,18.537c0,0.413 0.058,0.764 0.172,1.05c0.114,0.288 0.264,0.522 0.45,0.703c0.187,0.182 0.404,0.314 0.652,0.398c0.248,0.083 0.505,0.125 0.773,0.125c0.278,0 0.541,-0.048 0.789,-0.146c0.247,-0.098 0.465,-0.243 0.651,-0.435c0.187,-0.193 0.334,-0.431 0.442,-0.715c0.11,-0.285 0.164,-0.611 0.164,-0.98l0,-7.093c0,-0.101 0.034,-0.187 0.105,-0.26c0.069,-0.072 0.162,-0.109 0.28,-0.109l2.445,0c0.128,0 0.228,0.039 0.301,0.113c0.072,0.076 0.109,0.161 0.109,0.256l-0,7.049c-0,0.976 -0.143,1.795 -0.43,2.458c-0.288,0.664 -0.673,1.197 -1.158,1.602c-0.485,0.404 -1.046,0.694 -1.684,0.87c-0.638,0.175 -1.308,0.263 -2.01,0.263c-0.702,0 -1.373,-0.091 -2.014,-0.272c-0.641,-0.181 -1.204,-0.476 -1.689,-0.886c-0.485,-0.41 -0.87,-0.945 -1.158,-1.606c-0.286,-0.66 -0.43,-1.47 -0.43,-2.429l0,-7.049c0,-0.095 0.032,-0.18 0.096,-0.256c0.064,-0.074 0.143,-0.113 0.238,-0.113l2.506,0c0.084,0 0.171,0.036 0.263,0.105c0.092,0.069 0.137,0.158 0.137,0.264l0,7.093Z" style="fill:#ff781d;fill-rule:nonzero;"/><path d="M62.124,13.987c0.105,-0.156 0.234,-0.31 0.384,-0.463c0.15,-0.152 0.327,-0.288 0.53,-0.407c0.203,-0.12 0.434,-0.217 0.693,-0.292c0.259,-0.075 0.553,-0.112 0.881,-0.112c0.635,-0 1.201,0.121 1.7,0.366c0.498,0.244 0.921,0.577 1.269,0.999c0.348,0.422 0.613,0.915 0.793,1.479c0.181,0.564 0.272,1.167 0.272,1.807l0,5.47c0,0.211 -0.046,0.372 -0.138,0.48c-0.092,0.109 -0.238,0.163 -0.438,0.163l-1.929,0c-0.24,0 -0.404,-0.04 -0.493,-0.121c-0.089,-0.081 -0.134,-0.238 -0.134,-0.472l-0,-5.52c-0,-0.239 -0.046,-0.462 -0.137,-0.668c-0.092,-0.206 -0.216,-0.386 -0.372,-0.539c-0.156,-0.153 -0.339,-0.273 -0.547,-0.359c-0.209,-0.086 -0.43,-0.129 -0.664,-0.129c-0.2,-0 -0.397,0.04 -0.589,0.121c-0.192,0.08 -0.365,0.195 -0.518,0.342c-0.153,0.148 -0.281,0.325 -0.384,0.531c-0.103,0.206 -0.163,0.434 -0.179,0.685l-0,5.511c-0,0.095 -0.019,0.189 -0.055,0.284c-0.036,0.095 -0.09,0.168 -0.162,0.218c-0.073,0.044 -0.141,0.074 -0.205,0.091c-0.064,0.017 -0.138,0.025 -0.221,0.025l-1.888,0c-0.239,0 -0.412,-0.058 -0.518,-0.175c-0.105,-0.117 -0.158,-0.273 -0.158,-0.468l-0,-12.48c-0,-0.19 0.053,-0.343 0.158,-0.459c0.106,-0.118 0.279,-0.176 0.518,-0.176l1.888,0c0.128,0 0.27,0.044 0.426,0.134c0.072,0.05 0.126,0.122 0.162,0.216c0.036,0.095 0.055,0.184 0.055,0.268l-0,3.65Z" style="fill:#ff781d;fill-rule:nonzero;"/><path d="M84.338,23.344c-0.072,0.061 -0.149,0.1 -0.229,0.117c-0.081,0.017 -0.158,0.025 -0.23,0.025l-1.261,0c-0.1,0 -0.187,-0.018 -0.259,-0.054c-0.073,-0.036 -0.134,-0.085 -0.184,-0.146c-0.05,-0.061 -0.092,-0.13 -0.125,-0.208c-0.033,-0.078 -0.062,-0.158 -0.083,-0.242l-0.259,-1.065c-0.084,0.171 -0.205,0.367 -0.363,0.587c-0.16,0.219 -0.361,0.425 -0.606,0.616c-0.245,0.192 -0.537,0.352 -0.877,0.483c-0.34,0.131 -0.73,0.196 -1.17,0.196c-0.634,-0 -1.21,-0.123 -1.728,-0.368c-0.518,-0.245 -0.959,-0.579 -1.324,-1.002c-0.364,-0.423 -0.647,-0.917 -0.848,-1.483c-0.2,-0.564 -0.3,-1.167 -0.3,-1.807l0,-5.471c0,-0.211 0.046,-0.371 0.137,-0.48c0.092,-0.108 0.239,-0.163 0.439,-0.163l1.929,0c0.24,0 0.404,0.041 0.493,0.122c0.089,0.08 0.134,0.238 0.134,0.472l-0,5.442c-0,0.24 0.054,0.467 0.162,0.682c0.109,0.215 0.252,0.404 0.431,0.569c0.178,0.164 0.38,0.293 0.605,0.388c0.226,0.095 0.455,0.143 0.689,0.143c0.201,-0 0.408,-0.048 0.622,-0.143c0.214,-0.095 0.412,-0.221 0.593,-0.38c0.181,-0.159 0.33,-0.346 0.447,-0.56c0.117,-0.215 0.175,-0.442 0.175,-0.682l0,-5.434c0,-0.095 0.018,-0.189 0.055,-0.284c0.036,-0.095 0.09,-0.168 0.163,-0.218c0.072,-0.044 0.14,-0.075 0.204,-0.092c0.065,-0.016 0.138,-0.025 0.221,-0.025l1.888,0c0.239,0 0.412,0.059 0.518,0.176c0.105,0.117 0.158,0.273 0.158,0.467l0,9.346c0,0.106 -0.024,0.204 -0.071,0.292c-0.047,0.09 -0.112,0.16 -0.196,0.21l0.05,-0.026Z" style="fill:#ff781d;fill-rule:nonzero;"/><path d="M93.366,22.847c-0.05,0.105 -0.092,0.198 -0.125,0.279c-0.034,0.081 -0.071,0.148 -0.113,0.201c-0.042,0.052 -0.093,0.093 -0.155,0.121c-0.061,0.028 -0.145,0.042 -0.25,0.042l-1.653,-0c-0.446,-0 -0.669,-0.215 -0.669,-0.643l0,-12.477c0,-0.094 0.018,-0.181 0.055,-0.259c0.035,-0.077 0.083,-0.145 0.141,-0.2c0.059,-0.056 0.126,-0.099 0.201,-0.13c0.075,-0.031 0.149,-0.045 0.221,-0.045l1.896,-0c0.211,-0 0.379,0.061 0.501,0.183c0.123,0.123 0.184,0.273 0.184,0.451l-0,3.809c0.156,-0.168 0.323,-0.339 0.501,-0.512c0.178,-0.172 0.371,-0.331 0.58,-0.473c0.209,-0.142 0.439,-0.258 0.689,-0.348c0.251,-0.089 0.53,-0.133 0.836,-0.133c0.756,-0 1.454,0.14 2.092,0.422c0.637,0.28 1.185,0.668 1.644,1.161c0.46,0.494 0.819,1.073 1.078,1.739c0.259,0.666 0.388,1.386 0.388,2.16c0,0.769 -0.129,1.487 -0.388,2.156c-0.259,0.669 -0.618,1.25 -1.078,1.743c-0.459,0.493 -1.007,0.882 -1.644,1.166c-0.638,0.284 -1.336,0.426 -2.092,0.426c-0.285,0 -0.551,-0.049 -0.802,-0.147c-0.251,-0.097 -0.484,-0.222 -0.702,-0.373c-0.217,-0.15 -0.417,-0.312 -0.601,-0.485c-0.184,-0.173 -0.351,-0.335 -0.501,-0.486l-0.234,0.652Zm5.036,-4.652c-0,-0.356 -0.057,-0.695 -0.172,-1.017c-0.114,-0.323 -0.277,-0.606 -0.488,-0.851c-0.211,-0.245 -0.465,-0.437 -0.76,-0.579c-0.295,-0.142 -0.626,-0.213 -0.994,-0.213c-0.367,-0 -0.711,0.071 -1.031,0.213c-0.32,0.142 -0.598,0.334 -0.831,0.579c-0.234,0.245 -0.419,0.528 -0.555,0.851c-0.137,0.322 -0.205,0.661 -0.205,1.017l0,0.117c0.017,0.35 0.096,0.678 0.238,0.983c0.142,0.306 0.33,0.572 0.564,0.797c0.233,0.225 0.507,0.401 0.818,0.529c0.312,0.129 0.646,0.192 1.002,0.192c0.368,0 0.699,-0.068 0.994,-0.204c0.295,-0.137 0.549,-0.321 0.76,-0.555c0.211,-0.233 0.374,-0.51 0.488,-0.83c0.115,-0.318 0.172,-0.662 0.172,-1.029Z" style="fill:#ff781d;fill-rule:nonzero;"/><path d="M108.524,20.187c0.15,0.15 0.313,0.277 0.488,0.38c0.176,0.103 0.344,0.186 0.505,0.251c0.162,0.063 0.304,0.109 0.427,0.137c0.122,0.028 0.205,0.042 0.25,0.042c0.106,-0 0.241,-0.004 0.405,-0.013c0.164,-0.008 0.322,-0.033 0.472,-0.075c0.15,-0.041 0.28,-0.109 0.388,-0.204c0.109,-0.095 0.163,-0.229 0.163,-0.401c-0,-0.156 -0.031,-0.28 -0.092,-0.372c-0.061,-0.092 -0.15,-0.17 -0.267,-0.234c-0.117,-0.063 -0.26,-0.121 -0.43,-0.171c-0.17,-0.05 -0.361,-0.108 -0.572,-0.176c-0.668,-0.177 -1.22,-0.392 -1.654,-0.643c-0.434,-0.25 -0.778,-0.53 -1.031,-0.838c-0.254,-0.31 -0.43,-0.643 -0.53,-0.999c-0.101,-0.356 -0.151,-0.732 -0.151,-1.127c-0,-0.462 0.092,-0.883 0.275,-1.261c0.184,-0.379 0.446,-0.703 0.785,-0.973c0.34,-0.27 0.747,-0.479 1.22,-0.626c0.474,-0.148 0.999,-0.221 1.578,-0.221c0.351,-0 0.68,0.029 0.986,0.087c0.306,0.058 0.598,0.15 0.877,0.275c0.278,0.126 0.55,0.287 0.814,0.485c0.264,0.197 0.527,0.433 0.789,0.706c0.095,0.111 0.144,0.215 0.146,0.313c0.003,0.097 -0.06,0.202 -0.187,0.313c-0.218,0.178 -0.425,0.354 -0.623,0.526c-0.197,0.173 -0.402,0.365 -0.613,0.576c-0.068,0.056 -0.134,0.091 -0.201,0.105c-0.067,0.014 -0.131,0.012 -0.192,-0.005c-0.062,-0.016 -0.12,-0.044 -0.175,-0.083c-0.056,-0.039 -0.106,-0.086 -0.151,-0.142c-0.195,-0.217 -0.417,-0.363 -0.668,-0.439c-0.251,-0.074 -0.484,-0.112 -0.702,-0.112c-0.272,-0 -0.49,0.047 -0.651,0.142c-0.161,0.094 -0.237,0.239 -0.226,0.434c0.012,0.145 0.066,0.258 0.163,0.338c0.098,0.081 0.218,0.147 0.36,0.197c0.141,0.05 0.292,0.09 0.451,0.121c0.159,0.031 0.304,0.065 0.438,0.104c0.501,0.162 0.961,0.337 1.378,0.526c0.418,0.189 0.78,0.422 1.086,0.698c0.306,0.275 0.544,0.605 0.714,0.989c0.169,0.384 0.255,0.852 0.255,1.403c-0,0.551 -0.11,1.044 -0.33,1.478c-0.22,0.435 -0.523,0.799 -0.906,1.094c-0.384,0.295 -0.84,0.521 -1.366,0.677c-0.526,0.156 -1.092,0.234 -1.7,0.234c-0.345,-0 -0.696,-0.031 -1.052,-0.092c-0.356,-0.061 -0.701,-0.16 -1.035,-0.297c-0.335,-0.136 -0.651,-0.311 -0.952,-0.525c-0.301,-0.215 -0.568,-0.475 -0.802,-0.782c-0.061,-0.077 -0.107,-0.16 -0.138,-0.246c-0.031,-0.086 -0.045,-0.171 -0.042,-0.255c0.003,-0.083 0.02,-0.16 0.05,-0.229c0.031,-0.07 0.08,-0.13 0.147,-0.18l1.077,-1.077c0.133,-0.111 0.252,-0.15 0.355,-0.117c0.103,0.033 0.235,0.128 0.397,0.284Z" style="fill:#ff781d;fill-rule:nonzero;"/></g></svg>