<svg id="Livello_1" data-name="Livello 1" xmlns="http://www.w3.org/2000/svg" viewBox="0 0 180 58"><defs><style>.cls-1{fill:#fff}</style></defs><path class="cls-1" d="M40.87 39.79c0-6.63 3-14.67 6.34-14.67 1 0 1.63 1.84 1.63 3.88 0 4.59-2.4 12.13-7.68 13.82a14 14 0 0 1-.29-3m19.94-11.09c0-3.31 1.91-4.87 4-4.87s3.66 2.47 3.66 6.48a2.46 2.46 0 0 0 1.2.21c1.19 0 1.62-1 1.62-2.11 0-4.09-3.25-5.92-6.69-5.92s-7.33 3-7.33 6.9c0 6.14 11.41 9.45 11.41 16.08 0 4-2.32 5.92-4.57 5.92s-4.58-1.9-4.58-5.71c0-2.25.63-4.87.63-6.77 0-1-.28-1.69-1.27-1.69-1.17 0-2.13 2.6-2.18 5.63-1.5 3-3.87 7.2-8.32 7.2-4.15 0-6.05-2.75-7-6.06 6.27-1.55 11.27-9.52 11.27-15 0-2.82-1.48-5-5.07-5-5.27 0-9.1 5.51-10.27 11.61-1.85 5-4.69 14.41-14.6 14.41C13.4 50.07 9.45 40.76 9.45 31c0-11.77 5.71-23.69 15.15-23.69 3.17 0 4.58 3 4.58 7.83a34.28 34.28 0 0 1-.42 5.15 3.46 3.46 0 0 0 1.48.42c1.83 0 2.82-2.19 2.82-5.29 0-4.36-2.33-9.86-8.39-9.86-12.33 0-19.31 13-19.31 25.31 0 10.79 5.43 21 17.26 21 7.28 0 12-4.38 14.66-9 1 4.72 4.25 8.46 10.92 8.46a10.34 10.34 0 0 0 8.8-5.17c.72 3.38 2.78 6.63 7.22 6.63 5.7 0 8.38-3.81 8.38-8 0-7.19-11.77-11.36-11.77-16.08M90.33 38.45c0 4.88-2.33 11.78-6.2 11.78-3 0-4.37-5.15-4.37-10.73 0-6.7 2-14.39 5.85-14.39 2 0 3.38 1.63 5.2 5.08a81.16 81.16 0 0 0-.49 8.25m20.29-15.16c-2.6 0-5.14 6.28-6.13 14 0-6.83-.28-13.75-3.38-13.75a4.58 4.58 0 0 0-2 .49c1.74 3.88 1.78 12.52 2.69 19.29-1.15 2.86-2.82 7.44-5.58 7.44-1.55 0-2-2.89-2-6.7 0-8.25 1.2-11.42 1.2-15.79 0-.92-.07-1.91-.14-2.9a4.37 4.37 0 0 0-1.48-.28c-1.48 0-2.47 1.06-2.82 2.9-1.69-3.18-3.25-4.38-5.63-4.38-6.28 0-9.43 7.83-9.43 15.3 0 6.63 2.53 12.91 7.47 12.91 2.68 0 5.57-2.12 7.41-6.77.2 6.56 2.74 7.33 5.14 7.33 2.56 0 5-3.13 6.4-6.27.77 3.73 2 6.42 4.16 6.42 2 0 4-2.19 4-3.74 0-.29-.14-.5-.42-.5-1 0-1.63 2.54-3.38 2.54-1.27 0-1.77-2-1.77-5.08 0-7.48 3.17-20.73 5.71-20.73 1.63 0 1.69 5.78 1.69 9.94a5.09 5.09 0 0 0 1.34.29c1.41 0 2.26-1.34 2.26-3 0-3.53-1.84-9-5.29-9M122.8 19.34c2.26 0 3.81-2.54 3.81-4.44 0-1.2-.56-2.05-1.83-2.05-2.4 0-3.88 2.47-3.88 4.37 0 1.21.57 2.12 1.9 2.12M157.61 39.79c0-6.63 3-14.67 6.34-14.67 1 0 1.62 1.84 1.62 3.88 0 4.59-2.39 12.13-7.68 13.82a14 14 0 0 1-.28-3m17.69.14c-1.41 0-3.31 10.15-10.22 10.15-4.16 0-6.06-2.74-7-6.06 6.27-1.55 11.27-9.52 11.27-15 0-2.82-1.47-5-5.06-5-6.35 0-10.65 8-10.65 15.38a15.21 15.21 0 0 0 .86 5.22c-1.1 2.49-2.55 5.09-4.59 5.09-1.41 0-1.76-3.31-1.76-6.69 0-2.28.35-5.29.35-7.9 0-5.43-1-11.14-5.63-11.14-3.88 0-7.33 8.25-9 14.24-.08-1.48-.08-2.89-.08-4.37a64.89 64.89 0 0 1 .57-9 3 3 0 0 0-1.48-.49c-2.26 0-2.89 7.05-2.89 14 0 2.91.12 5.79.24 8.13-.63 2.17-1.58 4-3.25 4-2.68 0-3.74-6.13-3.74-13.4A60.39 60.39 0 0 1 124.65 24a3.93 3.93 0 0 0-1.48-.28c-2.46 0-3.81 5.15-3.81 11.35 0 7.83 2.19 16.59 7.54 16.59a4.2 4.2 0 0 0 3.51-2.16c.05.91.09 1.57.09 1.88a5 5 0 0 0 1.34.21c1.9 0 2-2 2-4.8 0-8.25 5.43-21 8.53-21 1.83 0 2.11 4.8 2.11 9 0 1.26-.07 2.81-.07 4.44 0 5.64.56 12.13 5.07 12.13 2.21 0 4.31-2.42 5.76-5.06 1.66 3 4.72 5.06 9.67 5.06 7.25 0 10.71-7.55 10.71-11 0-.22-.07-.43-.35-.43"/></svg>