<svg xmlns="http://www.w3.org/2000/svg" viewBox="0 0 63.986462 70.472717">
  <path fill="#fcfcfc" d="M43.632161 27.430006h-.08a10.71 10.71 0 01-2.26.24 10.46 10.46 0 01-4.75-1.14 10.7 10.7 0 01-4.78-4.88 9.71 9.71 0 01-1.75.15 7.86 7.86 0 01-.83-.05 10.43 10.43 0 01-3.15-.75l-.19.39-1 2a6 6 0 011.84-.29 5.63 5.63 0 015.72 5.54 4.49 4.49 0 010 .64c.55.16 1.09.34 1.64.54.55.2 1 .4 1.57.63.57.23 1.19.55 1.77.86.56.29 1.1.6 1.64.94h.17a2.33 2.33 0 01.53.07 2.15 2.15 0 011.46 1.23 5.32 5.32 0 01.95-.25 1.7 1.7 0 00.22 0 5.13 5.13 0 014.16 1.28l.78-1.59.42-.86a10.87 10.87 0 01-4.12-4.61"/>
  <path fill="#fcfcfc" d="M57.292161 14.490006a8.8 8.8 0 00-6.39-.63l-.74.2-.27-.76a9.12 9.12 0 00-4.35-4.82 8.82 8.82 0 00-6.2-.69l-.7.18-.28-.67a9.12 9.12 0 00-4.27-4.64 8.63 8.63 0 00-4-1 8.92 8.92 0 00-8 5.08 9.27 9.27 0 003.22 11.95c.24.15.48.29.74.43.26.13.52.23.78.34a8.7 8.7 0 003.22.62 7.55 7.55 0 001.06-.07 11 11 0 01-.16-5.92c.07-.28.16-.55.25-.83.09-.28.2-.55.31-.81l.23-.53a.85.85 0 011.13-.39.87.87 0 01.38 1.16c-.08.17-.15.35-.22.53-.07.18-.21.55-.3.82-.09.27-.16.56-.22.86a9.34 9.34 0 00.26 4.78 9 9 0 004.51 5.3 8.79 8.79 0 006.25.66 8.93 8.93 0 004.54-2.84c.19-.23.38-.46.55-.7.17-.24.32-.48.46-.73l.28-.5a.83.83 0 011.1-.41.87.87 0 01.38 1.16c-.08.17-.18.34-.27.51-.09.17-.28.5-.45.74-.17.24-.33.48-.51.7a10.64 10.64 0 01-4.38 3.3 9 9 0 003.24 3.59 7.89 7.89 0 00.74.43 7.83 7.83 0 00.8.41 8.62 8.62 0 003.22.62 8.91 8.91 0 008.05-5.08 9.27 9.27 0 00-4-12.3M16.672161 59.990006a3.88 3.88 0 01-1.79-.47.16.16 0 00-.23.06.17.17 0 00.07.24 4.23 4.23 0 001.95.52.18.18 0 00.17-.18.18.18 0 00-.17-.17"/>
  <path fill="#fcfcfc" d="M34.832161 43.430006v.62s0-.1-.07-.28l-.08-.31c0-.06 0-.13-.05-.19a1.8 1.8 0 00-.08-.21l-.16-.47c-.06-.17-.15-.32-.23-.5-.08-.18-.08-.17-.13-.25l-.15-.25-.16-.24-.17-.23a1.92 1.92 0 00-.18-.22l-.19-.21c-.14-.12-.26-.25-.4-.35l-.2-.15-.2-.13-.19-.11-.18-.1-.33-.13-.24-.07a.61.61 0 00-.13 0 .87.87 0 01.46-1.67h.09l.26.13.33.21a4.12 4.12 0 01.39.3l.21.19a1.34 1.34 0 01.2.21l.21.23.2.25a6.65 6.65 0 01.36.56 2.85 2.85 0 01.16.3 2.75 2.75 0 01.14.3l.12.31c0 .1.08.21.11.31l.09.31a2.82 2.82 0 01.07.31c0 .19.07.39.1.57a4.73 4.73 0 010 .52v.22a1.47 1.47 0 010 .21m-4.2 1.1a9.15 9.15 0 00-2.86 5.66 1.19 1.19 0 01-1.18 1.12h-.13a1.22 1.22 0 01-1.06-1.34 11.53 11.53 0 013.73-7.29 1.18 1.18 0 011.66.16 1.23 1.23 0 01-.17 1.71m-8.1 14.43a9.76 9.76 0 01-5.72 2.42 5.19 5.19 0 01-2.55-.64 1.24 1.24 0 01-.48-1.66 1.18 1.18 0 011.59-.51 3.53 3.53 0 002.93.07 12 12 0 01-4.26-2.64 1.21 1.21 0 010-1.71 1.16 1.16 0 011.66 0 9.49 9.49 0 006.08 2.53h3.16zm-8.29-13.84a11.52 11.52 0 013.74-7.29 1.19 1.19 0 011.67.19 1.23 1.23 0 01-.18 1.7 7.94 7.94 0 00-1.15 1.31 9.16 9.16 0 00-1.39 2.82 8.94 8.94 0 00-.31 1.54 1.2 1.2 0 01-1.18 1.08h-.14a1.17 1.17 0 01-.81-.48 1.23 1.23 0 01-.24-.87m4.46 6.59a.51.51 0 01-.11.72.47.47 0 01-.3.1.49.49 0 01-.41-.21 7.76 7.76 0 01-.64-1.03c-.55-1.2-.26-1.77.09-2 .83-.63 2.42-1.75 2.48-1.8a.51.51 0 01.71.12.53.53 0 01-.13.73s-1.63 1.14-2.44 1.77a3.42 3.42 0 00.75 1.65m-1.78-16.47l.26-.2.16-.12.11-.06.08-.06.44-.28.51-.25.28-.13.29-.11.31-.1.31-.09.33-.06h2.12l.48.14.36.15.26.13.08.05a.86.86 0 01.31.85.85.85 0 01-.15.37.82.82 0 01-1.15.19l-.1-.09a1.59 1.59 0 00-.21-.15 2.43 2.43 0 00-.29-.19l-.18-.09a1 1 0 00-.21-.09l-.22-.09-.23-.07a3.93 3.93 0 00-.44-.1h-.08a2.66 2.66 0 01-.28 0H18.652161l-.52.11-.47.14h-.07l-.14.05-.18.07-.3.12-.28.11.23-.17m26.15 19.24a3.64 3.64 0 00-.5-.46 2.79 2.79 0 00-.78-.37 1.89 1.89 0 00-.34-.09 2.64 2.64 0 00-2.09.45 1.44 1.44 0 00-.25.18.84.84 0 01-1.11 0 .27.27 0 01-.08-.07.87.87 0 01.09-1.26 1.77 1.77 0 01.24-.17 4.51 4.51 0 011.56-.71l-.14-.18a7.58 7.58 0 01-.92-1.79 7.41 7.41 0 01-.44-2.51 7.5 7.5 0 011-3.77 7.75 7.75 0 011-1.38 5.28 5.28 0 01-1.3-1.1 4.88 4.88 0 01-1.15-3.14 2.74 2.74 0 010-.5v-.07a4.21 4.21 0 01.11-.6c0-.09 0-.18.07-.27.07-.09.12-.35.19-.51a2.18 2.18 0 01-1-.86 2.32 2.32 0 01-.18-.39v-.14a1.79 1.79 0 01-.07-.51 1.94 1.94 0 01.32-1.07c-.38-.22-.76-.42-1.14-.61-.51-.26-1-.5-1.55-.73-.36-.15-.73-.3-1.1-.43-.55-.21-1.1-.39-1.64-.54a5.36 5.36 0 01-.81 1.25 5.64 5.64 0 01-1.26 1.13l-.1.07a5.85 5.85 0 01-6.81-.68 5.71 5.71 0 01-.55-.55 5.41 5.41 0 01-.55-.8 8.92 8.92 0 01-1 1.06l-.24.21a8.29 8.29 0 01-3.54 1.69c-.34.06-.69.1-1 .13a.83.83 0 01-.69.21 16.32 16.32 0 00-1.47 1.41 13.2 13.2 0 00-3.84 8.9v.41l-.2999996.27a14.88 14.88 0 00-1.17 1.35 15.92 15.92 0 00-1.1 1.62 10.74 10.74 0 00-1.7000007 7.05c.6 3.92 3.9500007 7.39 10.0000003 10.31 6.22 3 11.46 3.59 15.56 1.66a12.45 12.45 0 005-4.42 15.86 15.86 0 00.9-1.54 16.68 16.68 0 00.81-1.67 2.29 2.29 0 01-.23-.21.88.88 0 010-1.22.47.47 0 01.09-.06.9.9 0 011.12.06 2.63 2.63 0 00.49.39 3 3 0 00.81.36 3.38 3.38 0 00.71.1 2.88 2.88 0 002.84-2.77v-.13a2.88 2.88 0 00-.6-1.76 2.09 2.09 0 00-.14-.17"/>
  <path fill="#681319" d="M61.322161 26.790006a8.92 8.92 0 01-8.05 5.08 8.71 8.71 0 01-3.26-.57 7.67 7.67 0 01-.78-.34c-.26-.13-.5-.28-.74-.43a9.07 9.07 0 01-3.25-3.59 10.67 10.67 0 004.39-3.29 12.46 12.46 0 001-1.45c.1-.17.19-.34.28-.51a.87.87 0 00-.39-1.16.85.85 0 00-1.13.37c-.08.17-.18.33-.27.5a10 10 0 01-1 1.43 8.92 8.92 0 01-4.53 2.84 8.76 8.76 0 01-6.24-.66 9.07 9.07 0 01-4.54-5.29 9.39 9.39 0 01.2-6.51c.08-.17.15-.35.23-.52a.88.88 0 00-.38-1.17.86.86 0 00-1.14.38c-.09.18-.15.35-.23.53a10.76 10.76 0 00-.48 1.67 11 11 0 00.15 5.92 7.45 7.45 0 01-1.06.07 8.61 8.61 0 01-3.21-.62c-.27-.11-.53-.21-.79-.34-.26-.13-.5-.28-.74-.43a9.29 9.29 0 01-3.35-11.89 8.9 8.9 0 0112.07-4.12 9.16 9.16 0 014.27 4.61l.27.69.71-.19a9.16 9.16 0 012.21-.27 8.83 8.83 0 014 1 9.12 9.12 0 014.34 4.77l.28.72.73-.2a8.8 8.8 0 016.39.64 9.27 9.27 0 014 12.3m-11.82 13.73a7.68 7.68 0 014.73 7 7.52 7.52 0 01-2.18 5.38 7.73 7.73 0 01-1.39 1.1 7.52 7.52 0 01.39 2.53 7.82 7.82 0 01-7.94 7.69 8.13 8.13 0 01-4.53-1.38 17.91 17.91 0 00.9-1.94 4.51 4.51 0 001.5.26 4.57 4.57 0 004.54-4.21 2.86 2.86 0 000-.42 4.71 4.71 0 00-1.47-3.37 4.64 4.64 0 00-1.45-.94 4.5 4.5 0 00-1.66-.32 4.73 4.73 0 00-2.69.91l-.24.18a.88.88 0 00-.1 1.22.82.82 0 001.16.13l.24-.17a2.71 2.71 0 012.1-.46l.34.1a2.83 2.83 0 011.27.82 2.09 2.09 0 01.14.17 3 3 0 01.6 1.76.34.34 0 010 .14 2.88 2.88 0 01-2.84 2.76 2.92 2.92 0 01-2-.85l-.19-.13a.85.85 0 00-1 .13.89.89 0 000 1.23l.23.2a16.68 16.68 0 01-.75 1.67 14.75 14.75 0 01-.9 1.54 12.45 12.45 0 01-5 4.42c-4.1 1.94-9.33 1.37-15.56-1.66-5.9999995-2.92-9.3600002-6.38-9.9400002-10.31a10.74 10.74 0 011.6900007-7.05 15.92 15.92 0 011.1-1.62 13.63 13.63 0 011.18-1.34l.2699995-.28v-.41a13.21 13.21 0 013.77-8.9 16.32 16.32 0 011.47-1.41.83.83 0 00.69-.21h-.57a8.65 8.65 0 01-2.15-.3 18.78 18.78 0 00-1.3 1.38 15 15 0 00-3.6099995 9.09 17.47 17.47 0 00-1.5000011 1.82 8 8 0 01.2100011-15 8.39 8.39 0 011.72-.46 7.6 7.6 0 01-1.31-4.23 7.81 7.81 0 017.9399995-7.69 8 8 0 016.83 3.78 8.28 8.28 0 01.52 1c.08.19.16.38.22.57a6 6 0 011.47-.91 4.52 4.52 0 01.47-.18l1-2 .19-.39a10.37 10.37 0 003.15.76c.28 0 .55.05.83.05a10.87 10.87 0 001.71-.15 10.75 10.75 0 004.78 4.88 10.46 10.46 0 004.75 1.14 10.85 10.85 0 002.27-.22.11.11 0 01.08 0 10.74 10.74 0 004.13 4.62l-.43.86-.77 1.59a4.93 4.93 0 011.15 1.53 4.76 4.76 0 01.5 2.13v.18a5 5 0 01-.36 1.7 8.22 8.22 0 011.62.5m8.53-27.55a10.5 10.5 0 00-6.88-.93 10.84 10.84 0 00-4.86-5 10.41 10.41 0 00-4.76-1.15 10.53 10.53 0 00-1.94.18 10.74 10.74 0 00-4.77-4.86 10.42 10.42 0 00-4.74-1.19 10.63 10.63 0 00-9.58 6 11 11 0 004.07 14.2l-.86 1.75a9.67 9.67 0 00-8.29-4.64 9.55 9.55 0 00-9.6400002 9.43 9.29 9.29 0 00.52 3 9.87 9.87 0 00-.43 18.21 12.26 12.26 0 00-1.73 7.9c.67 4.52 4.3400007 8.44 10.9000002 11.62a25.57 25.57 0 0011 3 13.52 13.52 0 0011.62-6.17 9.73 9.73 0 005.43 1.64 9.54 9.54 0 009.64-9.42 9.28 9.28 0 00-.18-1.82 9.3 9.3 0 003.37-7.14 9.45 9.45 0 00-6-8.74 4.82 4.82 0 000-.65 6.6 6.6 0 00-1.31-3.95l.68-1.4a10.5 10.5 0 004 .81 10.63 10.63 0 009.57-6 11 11 0 00-4.83-14.67"/>
  <path fill="#681319" d="M29.112161 42.630006a11.53 11.53 0 00-3.73 7.29 1.22 1.22 0 001.06 1.38h.13a1.21 1.21 0 001.18-1.08 9.18 9.18 0 012.86-5.67 1.22 1.22 0 00.17-1.7 1.18 1.18 0 00-1.64-.22M18.302161 41.030006a7.55 7.55 0 011.15-1.31 1.23 1.23 0 00.18-1.7 1.19 1.19 0 00-1.62-.19 11.53 11.53 0 00-3.73 7.28 1.21 1.21 0 001.05 1.34h.13a1.19 1.19 0 001.18-1.08 9.28 9.28 0 01.32-1.55 9.43 9.43 0 011.38-2.81M19.782161 47.420006c-.07.05-1.65 1.17-2.48 1.8-.35.28-.65.83-.09 2a7.25 7.25 0 00.63 1.08.51.51 0 00.71.12.51.51 0 00.11-.72 3.45 3.45 0 01-.75-1.66c.81-.63 2.43-1.76 2.44-1.77a.52.52 0 00.14-.72.51.51 0 00-.7-.15M35.652161 30.420006c-.52-.23-1-.44-1.57-.63-.57-.19-1.07-.38-1.64-.49a5.29 5.29 0 01-.43 1.61c.55.16 1.1.33 1.64.54.37.14.74.27 1.1.44.52.22 1 .46 1.55.72.55.26.75.42 1.13.63a2 2 0 01.61-.65 2.24 2.24 0 01.97-.38c-.55-.33-1.09-.65-1.64-.94-.55-.29-1.17-.59-1.77-.85M34.772161 42.480006c0-.18-.06-.37-.1-.57a2.21 2.21 0 00-.07-.3l-.09-.31c0-.11-.07-.21-.11-.32l-.12-.31c0-.1-.09-.2-.14-.3a2.85 2.85 0 00-.16-.3 5.21 5.21 0 00-.36-.55c-.07-.09-.13-.18-.2-.26l-.21-.23a2 2 0 00-.2-.21l-.21-.19q-.2-.16-.39-.3l-.33-.21-.26-.13h-.09a.85.85 0 00-1 .57.86.86 0 00.58 1.07h.13a1.91 1.91 0 01.24.07l.33.13.18.09a2 2 0 01.19.12l.2.12.2.16c.14.1.26.23.4.35l.19.21a1.92 1.92 0 01.18.22l.17.23c.06.08.11.16.16.24l.15.25c0 .08.09.17.13.25l.23.5c.06.16.11.32.16.47a1.8 1.8 0 01.08.21c0 .06 0 .13.05.19l.08.31c0 .18.07.28.07.28v-.83a1.64 1.64 0 000-.22 4.92 4.92 0 000-.52M23.242161 34.300006l-.23-.13-.37-.14-.47-.14-.28-.06h-1.54a1.77 1.77 0 00-.32 0l-.33.07-.32.08-.31.1-.29.12-.28.11-.51.26-.43.28-.19.12-.16.12-.28.2-.22.17.27-.1.3-.13.19-.07.2-.06.47-.14.52-.12h.56a1.22 1.22 0 01.27 0h.56a1.31 1.31 0 01.27 0 3 3 0 01.52.11l.24.07.22.09a1.76 1.76 0 01.2.09l.18.09.3.19a1.56 1.56 0 01.2.16.43.43 0 01.1.09.84.84 0 001.16-.13.89.89 0 00-.17-1.22h-.08"/>
  <path fill="#dd3c20" d="M16.672161 60.300006a4.3 4.3 0 01-1.95-.52.19.19 0 01-.07-.24.17.17 0 01.23-.07 3.89 3.89 0 001.8.47.18.18 0 010 .35m5-3.51a9.5 9.5 0 01-6.04-2.48 1.17 1.17 0 00-1.63 0 1.21 1.21 0 000 1.71 12 12 0 004.33 2.65 3.53 3.53 0 01-2.93-.07 1.19 1.19 0 00-1.6.48 1.23 1.23 0 00.48 1.66 5.19 5.19 0 002.55.64 9.76 9.76 0 005.72-2.42l2.37-2.12z"/>
  <path fill="#f7b102" d="M54.202161 47.540006a7.75 7.75 0 00-6.35-7.54 4.83 4.83 0 00-.66-4.84 5.2 5.2 0 00-4.11-2 4.56 4.56 0 00-.9.08 5.32 5.32 0 00-1 .25 2.1 2.1 0 00-.86-1 2.24 2.24 0 00-1.13-.32h-.16a2.17 2.17 0 00-1.07.36 2.14 2.14 0 00-.62.65 2 2 0 00-.26 1.12 2.06 2.06 0 00.11.65 2.09 2.09 0 001.15 1.25 5.27 5.27 0 00-.19.51 2.29 2.29 0 00-.07.28 4.58 4.58 0 00-.15 1.17 4.93 4.93 0 002.45 4.23 7.5 7.5 0 00-.55 9.64 4.66 4.66 0 011.12-.16 4.42 4.42 0 012.42.72 4.63 4.63 0 01.69.55 4.71 4.71 0 011.42 3.37 4.6 4.6 0 01-4.54 4.64 4.29 4.29 0 01-1.5-.28 17.07 17.07 0 01-.9 1.94 8.13 8.13 0 004.53 1.38 7.8 7.8 0 007.94-7.69 7.41 7.41 0 00-.44-2.51 7.6 7.6 0 003.63-6.45M26.762161 23.070006a5.74 5.74 0 00-3.75 1.38 7.93 7.93 0 00-7.58-5.38 7.82 7.82 0 00-7.9399996 7.69 7.52 7.52 0 001.31 4.23 8.2 8.2 0 00-7.0000007 8 8.12 8.12 0 005.0599997 7.46 16.18 16.18 0 011.500001-1.81 15.25 15.25 0 014.9099996-10.48 9.75 9.75 0 001.05.21 10.17 10.17 0 001.1.08h.58a9.23 9.23 0 001.01-.15 8 8 0 004.76-3 5.84 5.84 0 008.72 1.47 5.5 5.5 0 001.52-1.85 5.21 5.21 0 00.31-.83 4.92 4.92 0 00.17-.85c0-.21 0-.42.05-.63a5.64 5.64 0 00-5.73-5.55"/>
</svg>
